<svg width="120" height="120" viewBox="0 0 120 120" fill="none" xmlns="http://www.w3.org/2000/svg">
    <path
        d="M25.0113 0C25.2646 0.135795 25.5179 0.27159 25.779 0.4115C25.779 1.15837 25.779 1.90524 25.779 2.67475C26.4123 2.67475 27.0457 2.67475 27.6983 2.67475C27.7716 3.0155 27.8353 3.35878 27.8902 3.7035C27.6983 3.90925 27.6983 3.90925 27.2597 3.92934C26.7661 3.92264 26.2725 3.91594 25.779 3.90925C25.779 4.65612 25.779 5.40299 25.779 6.17249C25.4623 6.24039 25.1456 6.30829 24.8193 6.37824C24.6274 6.17249 24.6274 6.17249 24.6086 5.65732C24.618 4.78328 24.618 4.78328 24.6274 3.90925C23.9307 3.90925 23.234 3.90925 22.5161 3.90925C22.4528 3.56976 22.3895 3.23027 22.3242 2.8805C22.5161 2.67475 22.5161 2.67475 22.9967 2.65465C23.5403 2.66135 24.0838 2.66805 24.6274 2.67475C24.6274 1.85998 24.6274 1.04521 24.6274 0.20575C24.7541 0.137852 24.8807 0.0699549 25.0113 0Z"
        fill="#979797" />
    <path
        d="M24.6274 0.617188C24.6907 0.617188 24.7541 0.617188 24.8193 0.617188C24.8193 1.36406 24.8193 2.11093 24.8193 2.88043C24.1859 2.94833 23.5526 3.01623 22.9 3.08618C22.8367 3.28988 22.7733 3.49357 22.7081 3.70343C23.3415 3.70343 23.9748 3.70343 24.6274 3.70343C24.6274 3.77133 24.6274 3.83923 24.6274 3.90918C23.9307 3.90918 23.234 3.90918 22.5161 3.90918C22.4528 3.5697 22.3895 3.23021 22.3242 2.88043C22.5161 2.67469 22.5161 2.67469 22.9967 2.65459C23.2873 2.65817 23.2873 2.65817 23.5838 2.66183C23.778 2.66368 23.9722 2.66554 24.1723 2.66745C24.3976 2.67103 24.3976 2.67103 24.6274 2.67469C24.6274 1.99571 24.6274 1.31674 24.6274 0.617188Z"
        fill="#979797" />
    <path
        d="M83.1162 9.94298C85.9544 12.3286 88.1315 15.1617 89.8608 18.5562C89.9592 18.7493 90.0575 18.9424 90.1589 19.1413C91.2102 21.2583 91.9988 23.469 92.7638 25.7189C94.1491 29.7649 95.9526 33.0228 99.6733 34.9776C101.063 35.6427 102.475 36.2507 103.888 36.8599C107.343 38.3515 110.196 40.0095 112.917 42.7961C113.089 42.962 113.089 42.962 113.266 43.1313C116.931 46.7773 119.238 52.716 119.503 58.0031C119.679 63.8323 118.409 69.3883 115.795 74.4816C115.703 74.6683 115.611 74.855 115.517 75.0474C114.711 76.5959 113.629 77.8969 112.533 79.2138C112.364 79.4207 112.364 79.4207 112.192 79.6318C107.414 85.1444 99.8207 87.109 93.1102 87.7959C92.8669 87.8209 92.6236 87.846 92.373 87.8718C91.895 87.9195 91.4168 87.9646 90.9384 88.0065C86.2642 88.4645 83.4333 90.7407 80.4802 94.4393C80.3277 94.6363 80.3277 94.6363 80.1721 94.8372C79.4501 95.7689 78.6675 96.5527 77.7932 97.3198C77.5267 97.5553 77.5267 97.5553 77.2549 97.7956C70.1092 103.972 60.5029 106.775 51.4147 105.807C43.2582 104.813 35.09 101.19 29.8105 94.2336C27.1362 90.5264 25.7078 86.3292 24.7243 81.7986C23.9943 78.5061 22.5944 75.7838 19.914 73.8515C18.509 72.9788 17.001 72.3777 15.4902 71.7491C13.8075 71.0475 12.2046 70.2582 10.6174 69.3379C10.3609 69.1946 10.3609 69.1946 10.0993 69.0485C5.2703 66.1809 2.30682 60.9271 0.65198 55.4514C0.0631662 53.0749 -0.0112476 50.6156 0.00121416 48.1713C0.00173894 47.956 0.00173894 47.956 0.00227433 47.7363C0.0292237 41.152 2.12481 35.2343 6.39491 30.4511C6.5243 30.2971 6.6537 30.143 6.78702 29.9842C8.52353 27.9899 10.7488 26.4996 13.1125 25.5132C13.3057 25.4272 13.4989 25.3413 13.698 25.2528C17.2058 23.7857 20.9291 23.4616 24.6592 23.376C30.5355 23.2332 36.6597 23.0446 41.038 18.1996C41.6782 17.442 42.2726 16.6462 42.8618 15.8429C52.5404 2.80303 70.5519 -0.34459 83.1162 9.94298Z"
        fill="#F0F0F0" />
    <path
        d="M76.2568 23.044C76.3939 23.1134 76.5309 23.1828 76.6722 23.2543C80.1543 25.0419 83.1414 27.5224 85.8534 30.451C85.9515 30.5568 86.0497 30.6626 86.1508 30.7716C87.5673 32.3178 88.772 33.9958 89.8839 35.8005C89.9576 35.92 90.0313 36.0396 90.1072 36.1627C94.8701 44.0076 96.6057 53.9954 94.8741 63.1652C94.0568 67.0791 92.8161 70.7516 91.0355 74.2757C90.9705 74.4049 90.9055 74.534 90.8385 74.667C89.7176 76.8586 88.3334 78.765 86.813 80.654C86.7225 80.7666 86.632 80.8792 86.5388 80.9953C85.5506 82.215 84.5246 83.3351 83.3583 84.3575C83.2195 84.4832 83.0807 84.6089 82.9377 84.7384C75.7694 91.0936 66.6625 93.8995 57.4199 93.1468C56.6547 93.0604 55.9008 92.9415 55.1444 92.7932C54.9903 92.7633 54.8361 92.7334 54.6773 92.7026C46.9785 91.1481 39.3951 86.8522 34.4159 80.2425C34.338 80.141 34.2602 80.0394 34.1799 79.9349C32.9033 78.2667 31.7698 76.5648 30.7692 74.6872C30.6433 74.4557 30.5173 74.2241 30.3876 73.9856C25.8157 65.3549 25.1981 55.1765 27.5272 45.7088C28.9127 40.4502 31.4354 35.4975 34.9617 31.5409C35.3855 31.07 35.3855 31.07 35.7714 30.5338C36.3316 29.7892 36.9986 29.2146 37.6787 28.5993C37.8472 28.4417 38.0157 28.2842 38.1893 28.1219C48.6541 18.489 63.8707 16.6767 76.2568 23.044Z"
        fill="white" />
    <path
        d="M61.5136 111.889C61.6952 111.889 61.8767 111.889 62.0638 111.889C67.3599 111.89 72.647 111.907 77.9325 112.307C78.3817 112.34 78.831 112.372 79.2803 112.403C82.3508 112.618 85.3941 112.927 88.4319 113.458C88.6591 113.498 88.8863 113.538 89.1204 113.579C90.9762 113.928 92.8883 114.317 94.4897 115.426C94.4777 115.889 94.4777 115.889 94.2978 116.454C93.3106 117.168 92.3567 117.51 91.2029 117.792C91.0287 117.835 90.8545 117.878 90.675 117.922C87.0457 118.777 83.3494 119.16 79.6511 119.476C79.5058 119.489 79.3605 119.501 79.2108 119.514C75.0312 119.868 70.8513 119.985 66.6597 119.987C66.2114 119.987 65.763 119.988 65.3146 119.989C64.3804 119.99 63.4462 119.99 62.5121 119.99C61.572 119.99 60.632 119.992 59.6919 119.995C55.1484 120.008 50.6087 120.017 46.0699 119.768C45.9204 119.76 45.771 119.752 45.6169 119.743C30.5967 118.899 30.5967 118.899 27.5059 116.249C27.5381 115.767 27.5381 115.767 27.6978 115.22C32.6631 111.792 41.7387 112.383 47.4667 112.134C47.6616 112.125 47.8564 112.116 48.0572 112.107C52.5426 111.913 57.0251 111.887 61.5136 111.889Z"
        fill="#F0F0F0" />
    <path
        d="M84.3056 26.8604C84.7958 27.3295 85.2743 27.8107 85.749 28.2978C85.9462 28.4994 86.1449 28.6995 86.3448 28.8982C92.5648 35.0796 96.3837 44.3898 96.8307 53.4491C97.1173 63.7087 94.4671 73.7505 87.9636 81.4773C87.7354 81.7643 87.5075 82.0514 87.2798 82.3389C87.0615 82.6019 86.8415 82.8633 86.62 83.1233C86.4902 83.276 86.3603 83.4288 86.2264 83.5862C82.0271 88.3073 76.2913 91.5869 70.4979 93.4108C70.3093 93.4734 70.1208 93.5359 69.9266 93.6004C60.9203 96.3271 51.0254 94.4867 42.9415 89.737C34.6887 84.7133 28.5711 76.2342 25.9699 66.4575C25.6479 65.0982 25.4146 63.7257 25.2022 62.3425C25.1373 61.9527 25.1373 61.9527 25.071 61.5549C24.4745 57.4098 24.6378 53.0747 25.3941 48.9688C25.426 48.7927 25.458 48.6165 25.4908 48.435C26.7506 41.7038 29.6252 35.4511 34.031 30.4513C34.2438 30.1821 34.4557 29.912 34.6668 29.6412C39.9606 23.174 47.9062 19.36 55.7192 18.1063C55.8487 18.0853 55.9782 18.0642 56.1117 18.0425C66.0731 16.6396 76.6944 19.7955 84.3056 26.8604ZM36.7893 29.5447C36.5261 29.8341 36.5261 29.8341 36.0463 30.2327C30.1081 35.4845 26.9819 44.9664 26.2608 52.9112C25.4813 62.641 28.3179 72.4091 34.1453 79.9025C35.3562 81.4312 36.6079 82.8834 38.0616 84.152C38.2727 84.3422 38.4839 84.5324 38.6951 84.7227C45.8927 91.1295 55.0722 93.9222 64.3395 93.0572C71.6846 92.2597 78.6573 89.0228 84.0447 83.5886C84.4525 83.1798 84.8705 82.7973 85.3005 82.416C86.2492 81.5292 86.9974 80.4783 87.7716 79.4198C87.9218 79.2256 88.072 79.0315 88.2267 78.8315C93.6933 71.593 96.2407 61.5784 95.3536 52.3516C94.9268 48.6525 94.1345 44.9913 92.7618 41.5618C92.7047 41.4187 92.6475 41.2755 92.5886 41.128C90.8761 36.9059 88.4162 33.3622 85.4685 30.0398C85.3571 29.9096 85.2458 29.7794 85.1311 29.6452C81.6423 25.6891 76.6581 22.762 71.8414 21.1926C71.6834 21.1396 71.5254 21.0866 71.3627 21.032C59.7347 17.1755 45.3988 19.786 36.7893 29.5447Z"
        fill="#979797" />
    <path
        d="M69.1198 62.8311C70.6987 64.2292 71.8954 65.8183 72.6106 67.8977C72.6526 68.4732 72.6526 68.4732 72.6106 68.9265C72.4186 69.1322 72.4186 69.1322 71.9268 69.1451C71.7724 69.1408 71.6181 69.1366 71.459 69.1322C71.3798 68.9606 71.3006 68.789 71.2191 68.6122C69.8474 65.7468 68.0468 63.6679 65.2055 62.4622C61.8398 61.32 58.3522 61.3757 55.1689 63.1012C52.8665 64.5746 51.3773 66.6268 50.1547 69.1322C49.838 69.0643 49.5213 68.9964 49.195 68.9265C49.0249 68.3146 48.9746 67.9841 49.1755 67.3745C49.9267 65.9323 50.7951 64.7464 51.882 63.577C51.9837 63.4632 52.0854 63.3494 52.1902 63.2322C56.8482 58.4698 64.2098 58.9598 69.1198 62.8311Z"
        fill="#979797" />
    <path
        d="M73.7616 45.6764C74.4896 46.1186 74.9876 46.6925 75.2971 47.5282C75.36 48.4797 75.226 49.3264 74.6733 50.0872C73.9884 50.7713 73.5397 50.9775 72.6221 51.1031C71.733 50.9864 71.1637 50.5335 70.567 49.8316C70.0843 48.9934 70.1686 48.065 70.3069 47.1167C71.0389 45.5378 72.2862 45.2488 73.7616 45.6764Z"
        fill="#979797" />
    <path
        d="M49.5793 45.4707C50.492 45.9795 51.031 46.545 51.4986 47.5282C51.6174 48.5654 51.5103 49.165 50.9228 49.9972C50.8199 50.15 50.717 50.3028 50.6109 50.4602C49.9249 51.002 49.2704 51.09 48.4277 51.026C47.7122 50.7757 47.2127 50.3585 46.7123 49.7529C46.4206 48.9252 46.3805 48.1958 46.5084 47.3225C47.1295 45.9397 48.1339 45.2448 49.5793 45.4707Z"
        fill="#979797" />
    <path
        d="M106.007 92.1763C106.324 92.2442 106.64 92.3121 106.966 92.382C106.966 93.1968 106.966 94.0116 106.966 94.851C107.6 94.851 108.233 94.851 108.886 94.851C108.959 95.1918 109.023 95.535 109.078 95.8798C108.886 96.0855 108.886 96.0855 108.447 96.1056C107.954 96.0989 107.46 96.0922 106.966 96.0855C106.966 96.7645 106.966 97.4435 106.966 98.143C106.649 98.2216 106.328 98.2899 106.007 98.3488C105.815 98.143 105.815 98.143 105.796 97.6728C105.798 97.4843 105.801 97.2957 105.803 97.1014C105.805 96.9123 105.806 96.7232 105.808 96.5284C105.81 96.3822 105.813 96.2361 105.815 96.0855C105.614 96.0927 105.614 96.0927 105.409 96.1C105.234 96.1037 105.059 96.1074 104.879 96.1112C104.706 96.116 104.532 96.1208 104.353 96.1257C103.896 96.0855 103.896 96.0855 103.512 95.674C103.575 95.4024 103.638 95.1308 103.704 94.851C104.4 94.851 105.097 94.851 105.815 94.851C105.813 94.6752 105.81 94.4993 105.808 94.3182C105.806 94.0909 105.805 93.8636 105.803 93.6294C105.801 93.4026 105.798 93.1758 105.796 92.9422C105.815 92.382 105.815 92.382 106.007 92.1763Z"
        fill="#979797" />
    <path
        d="M7.55731 79.6255C8.21525 79.8656 8.49558 80.0381 8.88883 80.6542C9.02792 81.5654 8.98375 81.9465 8.49297 82.7117C7.92918 83.1232 7.92918 83.1232 7.24542 83.149C6.45805 82.8727 6.20059 82.675 5.81794 81.8887C5.80345 81.0034 5.88326 80.6036 6.42972 79.9341C6.96952 79.6255 6.96952 79.6255 7.55731 79.6255Z"
        fill="#979797" />
    <path
        d="M101.4 5.34946C101.868 5.65808 101.868 5.65808 102.167 6.17246C102.212 6.75837 102.148 7.26092 101.975 7.81846C101.569 8.3159 101.33 8.41269 100.728 8.52572C100.248 8.43571 100.248 8.43571 99.8043 8.11422C99.3571 7.42183 99.3704 6.99757 99.4804 6.17246C100.005 5.32882 100.478 5.18473 101.4 5.34946Z"
        fill="#979797" />
    <path
        d="M118.853 29.9756C119.441 30.0399 119.441 30.0399 119.812 30.2585C120.138 30.8942 119.966 31.4127 119.824 32.0974C119.633 32.3031 119.633 32.3031 118.973 32.3417C118.289 32.3031 118.289 32.3031 117.905 31.8916C117.857 31.1715 117.857 31.1715 117.905 30.4514C118.289 30.0399 118.289 30.0399 118.853 29.9756Z"
        fill="#979797" />
    <path
        d="M7.07749 44.6865C7.54532 44.8537 7.54532 44.8537 7.92918 45.2652C7.85721 46.0111 7.85721 46.0111 7.73725 46.7055C6.69173 46.9794 6.69173 46.9794 6.22579 46.6797C5.93702 46.1638 5.92699 45.8575 6.00987 45.2652C6.33609 44.713 6.46354 44.6384 7.07749 44.6865Z"
        fill="#979797" />
    <path
        d="M86.0455 81.2715C86.2355 81.3394 86.4255 81.4073 86.6213 81.4772C86.1959 81.9513 85.7671 82.4218 85.3378 82.8918C85.1576 83.0927 85.1576 83.0927 84.9738 83.2976C84.3511 83.9756 83.8564 84.5126 82.9746 84.7692C83.7472 83.7498 84.5649 82.8849 85.4974 82.0326C85.8703 81.7084 85.8703 81.7084 86.0455 81.2715Z"
        fill="#979797" />
    <path
        d="M6.39279 44.8535C6.51946 44.9214 6.64614 44.9893 6.77665 45.0593C6.71331 45.2205 6.64997 45.3818 6.58472 45.5479C6.37001 46.0558 6.37001 46.0558 6.39279 46.4995C6.77281 46.4995 7.15283 46.4995 7.54437 46.4995C7.54437 46.0242 7.54437 45.5489 7.54437 45.0593C7.67105 45.1272 7.79772 45.1951 7.92823 45.265C7.8649 45.7403 7.80156 46.2156 7.7363 46.7053C6.69079 46.9792 6.69079 46.9792 6.22485 46.6795C5.94043 46.1714 5.93919 45.8481 6.00893 45.265C6.1356 45.1292 6.26227 44.9934 6.39279 44.8535Z"
        fill="#979797" />
    <path
        d="M106.008 92.1763C106.324 92.2442 106.641 92.3121 106.967 92.382C106.967 93.1968 106.967 94.0116 106.967 94.851C106.904 94.851 106.841 94.851 106.775 94.851C106.775 94.1041 106.775 93.3573 106.775 92.5878C106.585 92.6557 106.395 92.7236 106.199 92.7935C106.136 93.4046 106.073 94.0157 106.008 94.6453C105.944 94.6453 105.881 94.6453 105.816 94.6453C105.81 94.2724 105.807 93.8994 105.804 93.5265C105.801 93.3188 105.799 93.1112 105.797 92.8972C105.816 92.382 105.816 92.382 106.008 92.1763Z"
        fill="#979797" />
    <path
        d="M89.4998 79.4194C89.5631 79.6231 89.6264 79.8268 89.6917 80.0367C89.3117 80.4441 88.9317 80.8515 88.5401 81.2712C88.4134 81.2033 88.2868 81.1354 88.1562 81.0654C88.5996 80.5223 89.043 79.9791 89.4998 79.4194Z"
        fill="#F0F0F0" />
</svg>