<svg width="120" height="120" viewBox="0 0 120 120" fill="none" xmlns="http://www.w3.org/2000/svg">
    <path
        d="M25.0122 0C25.2656 0.135795 25.5189 0.27159 25.7799 0.4115C25.7799 1.15837 25.7799 1.90524 25.7799 2.67475C26.4133 2.67475 27.0467 2.67475 27.6993 2.67475C27.7726 3.0155 27.8363 3.35878 27.8912 3.7035C27.6993 3.90925 27.6993 3.90925 27.2607 3.92934C26.7671 3.92264 26.2735 3.91594 25.7799 3.90925C25.7799 4.65612 25.7799 5.40299 25.7799 6.17249C25.4633 6.24039 25.1466 6.30829 24.8203 6.37824C24.6284 6.17249 24.6284 6.17249 24.6096 5.65732C24.619 4.78328 24.619 4.78328 24.6284 3.90925C23.9317 3.90925 23.2349 3.90925 22.5171 3.90925C22.4538 3.56976 22.3905 3.23027 22.3252 2.8805C22.5171 2.67475 22.5171 2.67475 22.9977 2.65465C23.5413 2.66135 24.0848 2.66805 24.6284 2.67475C24.6284 1.85998 24.6284 1.04521 24.6284 0.20575C24.755 0.137852 24.8817 0.0699549 25.0122 0Z"
        fill="#767676" />
    <path
        d="M24.6284 0.617249C24.6917 0.617249 24.755 0.617249 24.8203 0.617249C24.8203 1.36412 24.8203 2.11099 24.8203 2.8805C24.1869 2.94839 23.5536 3.01629 22.901 3.08625C22.8377 3.28994 22.7743 3.49363 22.7091 3.70349C23.3424 3.70349 23.9758 3.70349 24.6284 3.70349C24.6284 3.77139 24.6284 3.83929 24.6284 3.90924C23.9317 3.90924 23.2349 3.90924 22.5171 3.90924C22.4538 3.56976 22.3905 3.23027 22.3252 2.8805C22.5171 2.67475 22.5171 2.67475 22.9977 2.65465C23.2883 2.65823 23.2883 2.65823 23.5847 2.66189C23.779 2.66374 23.9732 2.6656 24.1733 2.66751C24.3985 2.67109 24.3985 2.67109 24.6284 2.67475C24.6284 1.99577 24.6284 1.3168 24.6284 0.617249Z"
        fill="#767676" />
    <path
        d="M83.1162 9.94277C85.9544 12.3284 88.1315 15.1615 89.8608 18.556C89.9592 18.7491 90.0575 18.9422 90.1589 19.1411C91.2102 21.2581 91.9988 23.4688 92.7638 25.7187C94.1491 29.7647 95.9526 33.0226 99.6733 34.9774C101.063 35.6425 102.475 36.2505 103.888 36.8597C107.343 38.3513 110.196 40.0093 112.917 42.7959C113.089 42.9618 113.089 42.9618 113.266 43.1311C116.931 46.7771 119.238 52.7158 119.503 58.0029C119.679 63.8321 118.409 69.3881 115.795 74.4814C115.703 74.6681 115.611 74.8548 115.517 75.0472C114.711 76.5957 113.629 77.8967 112.533 79.2136C112.364 79.4205 112.364 79.4205 112.192 79.6316C107.414 85.1442 99.8207 87.1088 93.1102 87.7957C92.8669 87.8207 92.6236 87.8457 92.373 87.8716C91.895 87.9193 91.4168 87.9644 90.9384 88.0063C86.2642 88.4643 83.4333 90.7405 80.4802 94.4391C80.3277 94.6361 80.3277 94.6361 80.1721 94.837C79.4501 95.7687 78.6675 96.5525 77.7932 97.3196C77.5267 97.5551 77.5267 97.5551 77.2549 97.7954C70.1092 103.972 60.5029 106.775 51.4147 105.807C43.2582 104.813 35.09 101.19 29.8105 94.2334C27.1362 90.5261 25.7078 86.329 24.7243 81.7984C23.9943 78.5059 22.5944 75.7836 19.914 73.8513C18.509 72.9786 17.001 72.3775 15.4902 71.7489C13.8075 71.0472 12.2046 70.258 10.6174 69.3377C10.3609 69.1944 10.3609 69.1944 10.0993 69.0483C5.2703 66.1807 2.30682 60.9268 0.65198 55.4511C0.0631662 53.0747 -0.0112476 50.6154 0.00121416 48.1711C0.00173894 47.9558 0.00173894 47.9558 0.00227433 47.7361C0.0292237 41.1518 2.12481 35.234 6.39491 30.4509C6.5243 30.2968 6.6537 30.1428 6.78702 29.984C8.52353 27.9897 10.7488 26.4994 13.1125 25.5129C13.3057 25.427 13.4989 25.3411 13.698 25.2525C17.2058 23.7855 20.9291 23.4614 24.6592 23.3758C30.5355 23.233 36.6597 23.0444 41.038 18.1994C41.6782 17.4418 42.2726 16.646 42.8618 15.8427C52.5404 2.80283 70.5519 -0.344796 83.1162 9.94277Z"
        fill="#464646" />
    <path
        d="M76.2578 23.044C76.3948 23.1134 76.5319 23.1828 76.6731 23.2543C80.1553 25.0418 83.1423 27.5223 85.8543 30.451C85.9525 30.5568 86.0506 30.6626 86.1518 30.7716C87.5683 32.3177 88.773 33.9957 89.8849 35.8005C89.9586 35.92 90.0323 36.0395 90.1082 36.1626C94.8711 44.0076 96.6067 53.9953 94.8751 63.1652C94.0578 67.079 92.817 70.7515 91.0365 74.2757C90.9714 74.4048 90.9064 74.5339 90.8395 74.667C89.7185 76.8586 88.3344 78.7649 86.814 80.6539C86.7235 80.7665 86.633 80.8792 86.5398 80.9952C85.5516 82.2149 84.5256 83.3351 83.3592 84.3574C83.2204 84.4831 83.0816 84.6088 82.9386 84.7384C75.7703 91.0935 66.6635 93.8995 57.4208 93.1468C56.6557 93.0604 55.9018 92.9414 55.1454 92.7932C54.9913 92.7633 54.8371 92.7333 54.6783 92.7025C46.9795 91.1481 39.3961 86.8521 34.4169 80.2424C34.339 80.1409 34.2611 80.0394 34.1809 79.9348C32.9042 78.2667 31.7707 76.5648 30.7702 74.6872C30.6443 74.4556 30.5183 74.2241 30.3886 73.9855C25.8167 65.3549 25.1991 55.1765 27.5282 45.7087C28.9137 40.4501 31.4364 35.4974 34.9627 31.5408C35.3865 31.0699 35.3865 31.0699 35.7724 30.5338C36.3326 29.7891 36.9996 29.2146 37.6797 28.5992C37.8482 28.4417 38.0167 28.2841 38.1903 28.1218C48.655 18.4889 63.8717 16.6767 76.2578 23.044Z"
        fill="#979797" />
    <path
        d="M61.5146 111.889C61.6961 111.889 61.8777 111.889 62.0648 111.889C67.3608 111.89 72.648 111.907 77.9335 112.307C78.3827 112.34 78.832 112.372 79.2813 112.403C82.3518 112.618 85.395 112.926 88.4329 113.458C88.6601 113.498 88.8873 113.538 89.1214 113.579C90.9772 113.928 92.8893 114.317 94.4907 115.426C94.4787 115.889 94.4787 115.889 94.2988 116.454C93.3116 117.168 92.3577 117.51 91.2039 117.792C91.0297 117.835 90.8555 117.878 90.676 117.922C87.0467 118.777 83.3503 119.16 79.652 119.476C79.5068 119.489 79.3615 119.501 79.2118 119.514C75.0322 119.868 70.8523 119.985 66.6607 119.987C66.2123 119.987 65.764 119.988 65.3156 119.989C64.3814 119.99 63.4472 119.99 62.513 119.99C61.573 119.99 60.633 119.992 59.6929 119.994C55.1494 120.008 50.6097 120.017 46.0709 119.768C45.9214 119.76 45.7719 119.752 45.6179 119.743C30.5977 118.899 30.5977 118.899 27.5068 116.249C27.5391 115.767 27.5391 115.767 27.6988 115.22C32.6641 111.792 41.7397 112.383 47.4676 112.134C47.6625 112.125 47.8574 112.116 48.0582 112.107C52.5436 111.912 57.0261 111.887 61.5146 111.889Z"
        fill="#464646" />
    <path
        d="M84.3066 26.86C84.7968 27.3291 85.2753 27.8103 85.7499 28.2974C85.9472 28.4991 86.1459 28.6992 86.3458 28.8978C92.5658 35.0793 96.3847 44.3894 96.8317 53.4487C97.1183 63.7084 94.4681 73.7502 87.9645 81.4769C87.7364 81.7639 87.5085 82.0511 87.2808 82.3385C87.0625 82.6015 86.8425 82.8629 86.621 83.1229C86.4911 83.2757 86.3612 83.4284 86.2274 83.5858C82.028 88.307 76.2923 91.5866 70.4988 93.4104C70.3103 93.473 70.1218 93.5356 69.9275 93.6001C60.9213 96.3268 51.0264 94.4863 42.9425 89.7366C34.6897 84.713 28.5721 76.2338 25.9709 66.4572C25.6489 65.0978 25.4155 63.7254 25.2032 62.3422C25.1382 61.9523 25.1382 61.9523 25.072 61.5545C24.4755 57.4094 24.6388 53.0743 25.3951 48.9684C25.427 48.7923 25.4589 48.6162 25.4918 48.4347C26.7516 41.7034 29.6262 35.4508 34.032 30.451C34.2448 30.1817 34.4567 29.9117 34.6678 29.6408C39.9616 23.1737 47.9072 19.3596 55.7202 18.106C55.8497 18.0849 55.9792 18.0638 56.1126 18.0421C66.074 16.6392 76.6954 19.7951 84.3066 26.86ZM36.7902 29.5444C36.5271 29.8337 36.5271 29.8337 36.0473 30.2324C30.1091 35.4841 26.9829 44.9661 26.2617 52.9108C25.4822 62.6407 28.3188 72.4087 34.1463 79.9021C35.3572 81.4309 36.6089 82.8831 38.0625 84.1517C38.2737 84.3419 38.4849 84.5321 38.6961 84.7223C45.8937 91.1291 55.0732 93.9219 64.3405 93.0569C71.6856 92.2593 78.6582 89.0224 84.0457 83.5883C84.4535 83.1794 84.8715 82.7969 85.3015 82.4156C86.2502 81.5289 86.9984 80.478 87.7726 79.4194C87.9228 79.2253 88.073 79.0311 88.2277 78.8311C93.6942 71.5927 96.2417 61.578 95.3546 52.3513C94.9278 48.6521 94.1355 44.9909 92.7628 41.5615C92.7057 41.4183 92.6485 41.2751 92.5896 41.1277C90.8771 36.9056 88.4172 33.3618 85.4694 30.0395C85.3581 29.9092 85.2468 29.779 85.1321 29.6448C81.6432 25.6887 76.6591 22.7617 71.8424 21.1922C71.6844 21.1392 71.5264 21.0862 71.3637 21.0316C59.7356 17.1752 45.3998 19.7856 36.7902 29.5444Z"
        fill="#767676" />
    <path
        d="M69.1208 62.8309C70.6997 64.2289 71.8963 65.818 72.6116 67.8974C72.6535 68.4729 72.6535 68.4729 72.6116 68.9262C72.4196 69.1319 72.4196 69.1319 71.9278 69.1448C71.7734 69.1406 71.619 69.1363 71.46 69.1319C71.3808 68.9603 71.3016 68.7887 71.2201 68.6119C69.8484 65.7465 68.0478 63.6677 65.2065 62.462C61.8407 61.3197 58.3532 61.3754 55.1698 63.1009C52.8675 64.5744 51.3783 66.6266 50.1556 69.1319C49.839 69.064 49.5223 68.9962 49.196 68.9262C49.0259 68.3144 48.9756 67.9839 49.1765 67.3742C49.9277 65.932 50.796 64.7461 51.883 63.5767C51.9847 63.4629 52.0864 63.3491 52.1912 63.2319C56.8492 58.4695 64.2108 58.9596 69.1208 62.8309Z"
        fill="#767676" />
    <path
        d="M73.7626 45.6765C74.4905 46.1186 74.9886 46.6926 75.2981 47.5282C75.361 48.4798 75.227 49.3265 74.6743 50.0872C73.9894 50.7714 73.5406 50.9775 72.623 51.1031C71.734 50.9864 71.1647 50.5335 70.568 49.8316C70.0853 48.9935 70.1696 48.065 70.3079 47.1167C71.0399 45.5378 72.2872 45.2488 73.7626 45.6765Z"
        fill="#767676" />
    <path
        d="M49.5803 45.4707C50.493 45.9795 51.032 46.5449 51.4996 47.5282C51.6184 48.5654 51.5113 49.165 50.9238 49.9972C50.8209 50.15 50.7179 50.3027 50.6119 50.4601C49.9259 51.002 49.2714 51.0899 48.4287 51.0259C47.7132 50.7757 47.2137 50.3584 46.7133 49.7529C46.4216 48.9252 46.3815 48.1957 46.5094 47.3224C47.1305 45.9396 48.1349 45.2447 49.5803 45.4707Z"
        fill="#767676" />
    <path
        d="M106.006 92.1759C106.323 92.2438 106.639 92.3117 106.965 92.3816C106.965 93.1964 106.965 94.0112 106.965 94.8506C107.599 94.8506 108.232 94.8506 108.885 94.8506C108.958 95.1914 109.022 95.5347 109.077 95.8794C108.885 96.0851 108.885 96.0851 108.446 96.1052C107.953 96.0985 107.459 96.0918 106.965 96.0851C106.965 96.7641 106.965 97.4431 106.965 98.1426C106.648 98.2213 106.327 98.2895 106.006 98.3484C105.814 98.1426 105.814 98.1426 105.795 97.6725C105.797 97.4839 105.8 97.2953 105.802 97.101C105.804 96.9119 105.805 96.7228 105.807 96.528C105.809 96.3818 105.812 96.2357 105.814 96.0851C105.613 96.0923 105.613 96.0923 105.408 96.0996C105.233 96.1033 105.058 96.107 104.878 96.1109C104.705 96.1156 104.531 96.1204 104.352 96.1253C103.895 96.0851 103.895 96.0851 103.511 95.6736C103.574 95.4021 103.637 95.1305 103.703 94.8506C104.399 94.8506 105.096 94.8506 105.814 94.8506C105.812 94.6748 105.809 94.499 105.807 94.3178C105.805 94.0905 105.804 93.8632 105.802 93.629C105.8 93.4022 105.797 93.1755 105.795 92.9418C105.814 92.3816 105.814 92.3816 106.006 92.1759Z"
        fill="#767676" />
    <path
        d="M7.55829 79.6252C8.21622 79.8653 8.49656 80.0378 8.88981 80.6539C9.0289 81.5651 8.98472 81.9462 8.49395 82.7114C7.93015 83.1229 7.93015 83.1229 7.2464 83.1486C6.45903 82.8724 6.20157 82.6746 5.81891 81.8884C5.80442 81.0031 5.88424 80.6033 6.43069 79.9338C6.9705 79.6252 6.9705 79.6252 7.55829 79.6252Z"
        fill="#767676" />
    <path
        d="M101.401 5.34947C101.868 5.6581 101.868 5.6581 102.168 6.17247C102.213 6.75838 102.149 7.26093 101.976 7.81847C101.57 8.31591 101.331 8.41271 100.729 8.52574C100.249 8.43572 100.249 8.43572 99.8052 8.11424C99.3581 7.42185 99.3714 6.99759 99.4813 6.17247C100.006 5.32884 100.479 5.18474 101.401 5.34947Z"
        fill="#767676" />
    <path
        d="M118.854 29.9752C119.442 30.0395 119.442 30.0395 119.813 30.2581C120.139 30.8938 119.967 31.4123 119.825 32.097C119.633 32.3027 119.633 32.3027 118.974 32.3413C118.29 32.3027 118.29 32.3027 117.906 31.8912C117.858 31.1711 117.858 31.1711 117.906 30.451C118.29 30.0395 118.29 30.0395 118.854 29.9752Z"
        fill="#767676" />
    <path
        d="M7.07846 44.6863C7.54629 44.8534 7.54629 44.8534 7.93016 45.2649C7.85818 46.0108 7.85818 46.0108 7.73823 46.7052C6.69271 46.9791 6.69271 46.9791 6.22677 46.6795C5.938 46.1635 5.92797 45.8572 6.01085 45.2649C6.33707 44.7128 6.46452 44.6381 7.07846 44.6863Z"
        fill="#767676" />
    <path
        d="M86.0445 81.2712C86.2345 81.3391 86.4245 81.407 86.6203 81.4769C86.1949 81.951 85.7662 82.4215 85.3368 82.8915C85.1566 83.0924 85.1566 83.0924 84.9728 83.2973C84.3501 83.9753 83.8555 84.5123 82.9736 84.7689C83.7463 83.7495 84.564 82.8846 85.4965 82.0323C85.8694 81.7081 85.8694 81.7081 86.0445 81.2712Z"
        fill="#767676" />
    <path
        d="M6.39376 44.8535C6.52044 44.9214 6.64711 44.9892 6.77763 45.0592C6.71429 45.2205 6.65095 45.3817 6.58569 45.5479C6.37099 46.0557 6.37099 46.0557 6.39376 46.4995C6.77379 46.4995 7.15381 46.4995 7.54535 46.4995C7.54535 46.0242 7.54535 45.5489 7.54535 45.0592C7.67202 45.1271 7.7987 45.195 7.92921 45.265C7.86587 45.7402 7.80254 46.2155 7.73728 46.7052C6.69176 46.9792 6.69176 46.9792 6.22582 46.6795C5.94141 46.1713 5.94017 45.848 6.0099 45.265C6.13658 45.1292 6.26325 44.9934 6.39376 44.8535Z"
        fill="#767676" />
    <path
        d="M106.007 92.1759C106.323 92.2438 106.64 92.3117 106.966 92.3816C106.966 93.1964 106.966 94.0112 106.966 94.8506C106.903 94.8506 106.84 94.8506 106.774 94.8506C106.774 94.1038 106.774 93.3569 106.774 92.5874C106.584 92.6553 106.394 92.7232 106.199 92.7931C106.135 93.4042 106.072 94.0153 106.007 94.6449C105.943 94.6449 105.88 94.6449 105.815 94.6449C105.809 94.272 105.806 93.8991 105.803 93.5261C105.8 93.3185 105.798 93.1108 105.796 92.8968C105.815 92.3816 105.815 92.3816 106.007 92.1759Z"
        fill="#767676" />
    <path
        d="M89.5007 79.4194C89.5641 79.6231 89.6274 79.8268 89.6927 80.0367C89.3127 80.4441 88.9326 80.8514 88.5411 81.2712C88.4144 81.2033 88.2877 81.1354 88.1572 81.0654C88.6006 80.5222 89.0439 79.9791 89.5007 79.4194Z"
        fill="#464646" />
</svg>