<svg width="113" height="100" viewBox="0 0 113 100" fill="none" xmlns="http://www.w3.org/2000/svg">
    <path
        d="M55.4011 29.6568C55.923 29.6585 56.4449 29.6584 56.9668 29.6584C59.2864 29.6584 61.606 29.6654 63.9244 29.7478C64.1462 29.7549 64.1462 29.7549 64.3725 29.7621C65.2834 29.8007 66.1607 29.9186 67.0573 30.0845C67.5177 30.1591 67.9713 30.1963 68.4367 30.2245C70.5017 30.3862 72.2491 31.0331 73.7492 32.4999C75.3569 34.4448 76.3331 36.7884 77.1074 39.1619C77.249 39.5935 77.3999 39.9555 77.6079 40.3643C77.8117 40.7811 77.8117 40.7811 77.8117 41.4061C77.9149 41.4061 78.018 41.4061 78.1242 41.4061C78.1371 41.2386 78.15 41.071 78.1633 40.8983C78.2939 40.2453 78.3865 40.0829 78.9055 39.6874C80.4642 39.4418 82.7744 39.5418 84.1594 40.3514C84.8615 40.87 85.4638 41.4593 85.6242 42.3436C85.6987 43.1513 85.7302 43.8378 85.3801 44.58C84.0697 46.0248 84.0697 46.0248 83.1242 46.2499C82.6541 46.2722 82.1881 46.2683 81.718 46.2499C81.8308 46.3917 81.9436 46.5335 82.0598 46.6796C82.8901 47.8364 83.4542 49.2491 83.4587 50.6766C83.4596 50.8455 83.4605 51.0144 83.4614 51.1884C83.4616 51.3729 83.4617 51.5574 83.4619 51.7475C83.4627 51.9424 83.4635 52.1374 83.4643 52.3382C83.4662 52.8725 83.4673 53.4068 83.468 53.9411C83.4685 54.2752 83.4691 54.6093 83.4698 54.9434C83.472 55.9895 83.4735 57.0356 83.4741 58.0817C83.4748 59.2878 83.4775 60.4938 83.482 61.6999C83.4854 62.6331 83.487 63.5664 83.4872 64.4997C83.4874 65.0566 83.4883 65.6135 83.4911 66.1705C83.4941 66.7921 83.4935 67.4137 83.4924 68.0353C83.4939 68.2189 83.4953 68.4025 83.4968 68.5916C83.4894 70.0473 83.236 70.958 82.1867 72.0311C81.3065 72.6443 80.6545 72.7508 79.5946 72.7446C79.4534 72.7456 79.3123 72.7466 79.1669 72.7476C78.8697 72.7487 78.5725 72.7482 78.2753 72.7462C77.8233 72.744 77.3717 72.7494 76.9197 72.7553C76.6297 72.7555 76.3397 72.7552 76.0497 72.7544C75.916 72.7565 75.7823 72.7585 75.6446 72.7607C74.5657 72.7441 73.8178 72.3946 73.0418 71.6439C72.0346 70.506 72.1867 69.7147 72.1867 68.1249C61.2039 68.1249 50.2211 68.1249 38.9055 68.1249C38.9055 68.7436 38.9055 69.3624 38.9055 69.9999C38.7224 70.5028 38.7224 70.5028 38.4758 70.8592C38.3562 71.0405 38.3562 71.0405 38.2341 71.2255C37.5625 72.0758 36.8592 72.5503 35.7668 72.7012C35.4271 72.72 35.0904 72.7252 34.7502 72.7239C34.6266 72.7247 34.503 72.7255 34.3757 72.7264C34.1163 72.7274 33.8568 72.7272 33.5973 72.7258C33.2033 72.7245 32.8096 72.729 32.4156 72.7339C32.1619 72.7342 31.9082 72.7341 31.6545 72.7336C31.5384 72.7354 31.4223 72.7371 31.3027 72.739C30.2838 72.7256 29.4739 72.3988 28.7114 71.7186C28.6272 71.6155 28.543 71.5124 28.4563 71.4061C28.3697 71.303 28.2831 71.1999 28.1938 71.0936C27.7588 70.4917 27.6163 70.0616 27.6106 69.3148C27.6085 69.144 27.6065 68.9732 27.6045 68.7972C27.6039 68.6106 27.6033 68.4239 27.6027 68.2315C27.6009 68.0343 27.5991 67.837 27.5972 67.6338C27.5924 67.0927 27.5898 66.5515 27.5878 66.0103C27.5865 65.6712 27.5849 65.332 27.5833 64.9929C27.5781 63.9291 27.5744 62.8652 27.5725 61.8013C27.5703 60.5788 27.5635 59.3563 27.5526 58.1338C27.5444 57.1858 27.5406 56.2378 27.5399 55.2897C27.5393 54.7251 27.5371 54.1606 27.5303 53.596C27.4998 50.9162 27.4778 48.598 29.218 46.4061C29.0971 46.3944 28.9763 46.3828 28.8518 46.3707C27.5659 46.2084 26.6933 45.9201 25.8782 44.8827C25.3518 44.0055 25.2917 43.0248 25.468 42.0311C25.8768 41.1688 26.5212 40.6127 27.343 40.1561C27.9499 39.9538 28.5449 39.9027 29.1789 39.8339C29.3632 39.8126 29.3632 39.8126 29.5512 39.7908C31.4831 39.5774 31.4831 39.5774 32.0244 39.8308C32.5196 40.2754 32.7733 40.5768 32.8117 41.2499C32.9149 41.2499 33.018 41.2499 33.1242 41.2499C33.1613 41.0565 33.1984 40.8632 33.2365 40.6639C34.001 37.2424 35.8331 33.0774 38.878 31.1235C41.0968 29.9086 44.3202 29.9682 46.8034 29.8259C46.9152 29.8194 47.0269 29.8128 47.1421 29.8061C49.8944 29.6481 52.6451 29.6455 55.4011 29.6568ZM45.6285 30.9887C45.5197 30.9978 45.4109 31.0069 45.2989 31.0163C44.0973 31.1201 42.9069 31.2706 41.7177 31.4713C41.6112 31.4887 41.5046 31.5061 41.3948 31.524C39.8466 31.7996 38.5244 32.3903 37.5237 33.6412C36.3939 35.3307 35.5906 37.2647 34.8894 39.1643C34.601 39.9086 34.2741 40.6349 33.9421 41.3607C33.7355 41.8203 33.593 42.146 33.593 42.6561C35.1552 42.6934 36.6832 42.6332 38.2381 42.4791C41.8925 42.1226 45.5314 41.9813 49.2021 41.984C49.6611 41.9842 50.1201 41.9834 50.579 41.9827C51.6684 41.981 52.7577 41.9808 53.8471 41.9818C54.8258 41.9826 55.8046 41.9815 56.7833 41.9786C62.2894 41.9624 67.7634 42.0016 73.2544 42.4712C73.8001 42.5174 74.346 42.5601 74.8919 42.6031C75.7094 42.6681 76.5263 42.7377 77.343 42.8124C77.2493 42.1063 77.0658 41.5079 76.7961 40.8495C76.7555 40.7503 76.7149 40.6511 76.6731 40.5489C76.5331 40.209 76.3913 39.8701 76.2492 39.5311C76.1959 39.4029 76.1426 39.2746 76.0877 39.1425C75.6838 38.1733 75.2674 37.2102 74.843 36.2499C74.7902 36.1285 74.7374 36.0071 74.683 35.8821C73.8757 34.0466 72.934 32.6701 71.0309 31.8588C70.2667 31.5954 69.4787 31.4905 68.6809 31.3768C68.514 31.3512 68.3471 31.3255 68.1752 31.299C64.0671 30.6792 59.8913 30.748 55.7464 30.7436C55.2052 30.7429 54.6641 30.7407 54.123 30.7372C51.2827 30.7189 48.46 30.7454 45.6285 30.9887ZM38.0732 43.36C37.1258 43.4358 36.182 43.4735 35.2316 43.4919C33.913 43.5302 32.9359 43.6605 31.9524 44.5897C31.6436 44.9195 31.3669 45.2659 31.093 45.6249C30.9582 45.7889 30.8231 45.9527 30.6877 46.1162C29.3899 47.7574 28.5452 49.2503 28.5476 51.3615C28.5465 51.4932 28.5455 51.625 28.5444 51.7607C28.5415 52.1937 28.5408 52.6266 28.5405 53.0596C28.5395 53.3625 28.5384 53.6655 28.5374 53.9685C28.5355 54.6027 28.5349 55.237 28.5351 55.8712C28.5351 56.6808 28.5309 57.4903 28.5255 58.2999C28.522 58.9255 28.5214 59.5511 28.5215 60.1767C28.5212 60.475 28.5198 60.7734 28.5174 61.0717C28.4866 63.8259 28.4866 63.8259 29.8522 66.1493C31.0295 67.1463 32.3705 67.3011 33.8559 67.2855C34.0483 67.2866 34.2407 67.2877 34.439 67.2889C34.9684 67.2912 35.4976 67.2899 36.027 67.2872C36.5997 67.2851 37.1724 67.2875 37.7451 67.2894C38.8651 67.2922 39.9851 67.2909 41.1052 67.2881C42.0157 67.2859 42.9263 67.2853 43.8369 67.2858C43.9668 67.2859 44.0966 67.286 44.2304 67.2861C44.4942 67.2862 44.758 67.2864 45.0218 67.2866C47.3519 67.2879 49.6819 67.2853 52.012 67.2806C54.2707 67.2761 56.5294 67.275 58.7881 67.2774C61.2506 67.2801 63.713 67.2807 66.1754 67.278C66.4382 67.2777 66.701 67.2774 66.9637 67.2771C67.1576 67.2769 67.1576 67.2769 67.3555 67.2767C68.2646 67.2758 69.1737 67.2763 70.0828 67.2773C71.1913 67.2785 72.2997 67.2775 73.4081 67.2736C73.9732 67.2716 74.5382 67.2706 75.1033 67.2724C75.7168 67.2743 76.3302 67.2713 76.9437 67.2678C77.2096 67.2697 77.2096 67.2697 77.4809 67.2717C78.8338 67.2576 80.1165 66.9857 81.1516 66.0546C81.2463 65.9732 81.3409 65.8918 81.4385 65.808C82.2147 64.8656 82.4359 63.9734 82.4263 62.7726C82.4277 62.6336 82.429 62.4947 82.4304 62.3516C82.434 61.8956 82.4329 61.4398 82.4315 60.9838C82.4323 60.6642 82.4333 60.3447 82.4344 60.0252C82.4361 59.3564 82.4353 58.6877 82.4331 58.0189C82.4304 57.1661 82.434 56.3134 82.4395 55.4605C82.443 54.8007 82.4427 54.1409 82.4415 53.4811C82.4413 53.1669 82.4424 52.8527 82.4447 52.5385C82.4601 50.0697 82.1426 48.3161 80.468 46.4061C80.358 46.2756 80.248 46.1451 80.1347 46.0106C79.0749 44.7846 78.1028 43.6761 76.4173 43.5347C76.2673 43.5271 76.1174 43.5196 75.963 43.5118C75.8019 43.4999 75.6409 43.4879 75.475 43.4756C74.9618 43.4387 74.4484 43.4087 73.9348 43.3788C73.6018 43.3554 73.2689 43.3316 72.936 43.3074C68.9516 43.0272 64.9632 42.9427 60.9701 42.9374C60.638 42.9369 60.306 42.9362 59.9739 42.9356C58.9199 42.9334 57.8659 42.9319 56.8118 42.9313C55.7408 42.9307 54.6699 42.9288 53.5989 42.9247C48.4092 42.9053 43.2501 42.9359 38.0732 43.36Z"
        fill="#DADADA" />
    <path
        d="M55.5917 87.1384C56.0198 87.1389 56.448 87.1391 56.8762 87.1393C78.1159 87.1505 78.1159 87.1505 83.2812 88.7501C83.2812 88.9563 83.2812 89.1626 83.2812 89.3751C81.3687 90.0882 79.3551 90.226 77.334 90.3907C77.2135 90.4006 77.0931 90.4104 76.969 90.4206C71.9831 90.8235 66.9922 90.9614 61.9922 91.0352C61.8269 91.0377 61.8269 91.0377 61.6583 91.0402C52.6279 91.1725 43.5932 91.0822 34.5898 90.3223C34.4395 90.3099 34.2891 90.2975 34.1342 90.2847C29.2699 89.8779 29.2699 89.8779 28.2812 89.2188C28.2812 89.0641 28.2812 88.9095 28.2812 88.7501C28.8752 88.485 29.417 88.3648 30.061 88.2813C30.2594 88.2555 30.4578 88.2298 30.6622 88.2032C30.7659 88.1903 30.8695 88.1774 30.9763 88.1641C31.2775 88.1265 31.5784 88.0868 31.8793 88.047C35.1291 87.633 38.3993 87.4445 41.6718 87.3273C41.8495 87.3208 42.0272 87.3143 42.2103 87.3076C46.6701 87.1473 51.1295 87.132 55.5917 87.1384Z"
        fill="#EFF9EC" />
    <path
        d="M75.8295 48.2933C77.0785 48.8616 77.9173 49.6 78.5401 50.8208C78.7655 51.451 78.8194 51.9961 78.808 52.6561C78.8098 52.7612 78.8117 52.8664 78.8135 52.9747C78.806 54.2679 78.2572 55.1648 77.3987 56.0796C76.3518 57.0084 75.1781 57.3342 73.7928 57.2716C72.5602 57.0688 71.562 56.525 70.7709 55.5565C70.6122 55.3227 70.4585 55.0853 70.3119 54.8436C70.212 54.6792 70.1121 54.5149 70.0092 54.3456C69.5688 52.7652 69.7632 51.4689 70.5298 50.0359C70.7807 49.6874 70.7807 49.6874 71.2494 49.5311C71.301 49.3764 71.3526 49.2217 71.4057 49.0624C72.7242 48.0101 74.233 47.7737 75.8295 48.2933Z"
        fill="white" />
    <path
        d="M38.6035 48.6816C39.8348 49.4611 40.4951 50.3916 40.8887 51.7871C41.0668 53.2474 40.8204 54.5754 39.8926 55.7617C38.9325 56.778 37.7544 57.2032 36.3867 57.2461C35.1821 57.2326 34.3423 56.92 33.4326 56.131C32.54 55.1987 32.0112 54.1003 31.9629 52.8027C32.0387 51.2392 32.6951 50.0793 33.8184 49.0137C35.2672 48.0596 37.0182 47.8706 38.6035 48.6816Z"
        fill="white" />
    <path
        d="M37.8767 62.3234C38.0948 62.324 38.0948 62.324 38.3174 62.3247C38.4707 62.3246 38.624 62.3245 38.7819 62.3243C39.2996 62.3241 39.8174 62.3249 40.3351 62.3258C40.7046 62.3258 41.0741 62.3258 41.4436 62.3257C42.3454 62.3257 43.2472 62.3264 44.1491 62.3273C45.198 62.3285 46.247 62.3287 47.296 62.3289C49.1668 62.3292 51.0377 62.3303 52.9085 62.3317C54.7263 62.3332 56.5441 62.3343 58.3619 62.3349C58.5298 62.335 58.5298 62.335 58.7012 62.3351C59.2629 62.3353 59.8246 62.3355 60.3863 62.3357C65.0492 62.3373 69.7121 62.34 74.375 62.3435C74.4266 62.6013 74.4781 62.8591 74.5312 63.1248C74.0535 63.4432 73.9617 63.4764 73.4249 63.4766C73.2295 63.4778 73.2295 63.4778 73.0301 63.4791C72.887 63.4784 72.7439 63.4777 72.5964 63.477C72.4444 63.4774 72.2924 63.4779 72.1357 63.4784C71.624 63.4797 71.1123 63.4787 70.6005 63.4777C70.2346 63.4781 69.8687 63.4787 69.5027 63.4794C68.5072 63.4808 67.5116 63.4802 66.516 63.4793C65.5813 63.4785 64.6466 63.4791 63.7119 63.4795C61.748 63.4804 59.784 63.4794 57.8201 63.4777C56.1338 63.4763 54.4474 63.4766 52.761 63.478C50.804 63.4797 48.847 63.4803 46.89 63.4794C45.8536 63.4789 44.8171 63.4788 43.7807 63.4799C42.8066 63.4808 41.8326 63.4801 40.8586 63.4783C40.5002 63.4779 40.1418 63.478 39.7833 63.4787C39.2959 63.4796 38.8086 63.4785 38.3212 63.477C38.1777 63.4777 38.0343 63.4784 37.8865 63.4791C36.9107 63.4729 36.9107 63.4729 36.5625 63.1248C36.6981 62.2301 37.0259 62.3254 37.8767 62.3234Z"
        fill="#DADADA" />
    <path
        d="M82.3443 66.0938C82.3958 66.0938 82.4474 66.0938 82.5005 66.0938C82.5234 66.6926 82.5372 67.2914 82.5494 67.8906C82.5559 68.059 82.5624 68.2274 82.5692 68.4009C82.5836 69.3436 82.5473 70.0742 81.9641 70.8429C81.1627 71.6641 80.3469 71.769 79.2235 71.7963C78.8707 71.7985 78.5182 71.7965 78.1653 71.7916C77.8035 71.7871 77.4421 71.7884 77.0803 71.7905C76.8474 71.7895 76.6146 71.7882 76.3817 71.7865C76.2751 71.787 76.1685 71.7874 76.0586 71.7879C75.2025 71.7713 74.4516 71.5846 73.7908 71.0156C73.2489 70.298 73.1053 69.8434 73.1158 68.9551C73.1172 68.7998 73.1186 68.6445 73.12 68.4845C73.1218 68.3659 73.1237 68.2472 73.1255 68.125C73.305 68.1244 73.4845 68.1237 73.6695 68.1231C74.344 68.1196 75.0184 68.1111 75.6928 68.1012C75.9831 68.0976 76.2735 68.0953 76.5638 68.0944C78.5517 68.0875 80.3985 68.0733 81.9048 66.5918C81.9876 66.4973 82.0704 66.4029 82.1557 66.3055C82.2179 66.2357 82.2801 66.1658 82.3443 66.0938Z"
        fill="white" />
    <path
        d="M28.5935 66.25C28.6966 66.25 28.7997 66.25 28.906 66.25C29.1664 66.5104 29.4268 66.7708 29.6872 67.0312C30.7734 67.8401 31.704 68.0154 33.021 68.0334C33.1584 68.0365 33.2958 68.0395 33.4373 68.0426C33.8735 68.0519 34.3096 68.0592 34.7458 68.0664C35.0427 68.0724 35.3395 68.0785 35.6363 68.0847C36.3616 68.0997 37.0869 68.1128 37.8122 68.125C37.8191 68.4261 37.824 68.7272 37.8281 69.0283C37.8311 69.196 37.834 69.3637 37.837 69.5364C37.8031 70.1711 37.6222 70.4797 37.1872 70.9375C36.3311 71.5839 35.6955 71.7447 34.6457 71.756C34.4789 71.7579 34.4789 71.7579 34.3088 71.7598C34.0734 71.762 33.8381 71.7636 33.6027 71.7649C33.3633 71.7667 33.1239 71.7699 32.8845 71.7745C32.5373 71.7812 32.1903 71.7837 31.843 71.7853C31.7373 71.788 31.6317 71.7907 31.5228 71.7936C30.5892 71.7894 29.9443 71.4728 29.2588 70.8441C28.738 70.1708 28.5734 69.7307 28.5782 68.8898C28.5787 68.7362 28.5792 68.5826 28.5798 68.4244C28.5811 68.2644 28.5824 68.1043 28.5837 67.9395C28.5844 67.7776 28.5851 67.6158 28.5859 67.449C28.5877 67.0493 28.5903 66.6497 28.5935 66.25Z"
        fill="white" />
    <path
        d="M60.1562 12.1875C60.4968 12.2427 60.4968 12.2427 60.7812 12.3438C60.9182 12.6698 60.9182 12.6698 60.9375 13.125C60.6352 13.5111 60.3481 13.8236 59.9957 14.1583C59.8984 14.2543 59.8011 14.3503 59.7008 14.4492C59.3892 14.7555 59.0746 15.0584 58.7598 15.3613C58.5481 15.5683 58.3366 15.7755 58.1253 15.983C57.6068 16.4912 57.0854 16.9963 56.5625 17.5C56.7641 17.9441 56.9744 18.2622 57.3224 18.6029C57.4095 18.689 57.4966 18.7751 57.5864 18.8638C57.6771 18.952 57.7678 19.0401 57.8613 19.1309C57.9947 19.2621 57.9947 19.2621 58.1308 19.3961C58.3064 19.5688 58.4823 19.7412 58.6587 19.9132C58.8834 20.1338 59.1047 20.3579 59.3256 20.5823C59.6301 20.8811 59.9352 21.1383 60.2734 21.3965C60.6883 21.7446 60.7737 21.8499 60.9375 22.3926C60.9375 22.5312 60.9375 22.6697 60.9375 22.8125C60.7812 22.9688 60.7812 22.9688 60.4454 23.0383C59.7593 22.9312 59.4349 22.5005 58.9667 22.0117C58.8707 21.9146 58.7747 21.8175 58.6758 21.7175C58.3698 21.4072 58.0668 21.0943 57.7637 20.7812C57.5566 20.5703 57.3494 20.3595 57.142 20.1489C56.6343 19.6325 56.129 19.1138 55.625 18.5938C55.4768 18.7227 55.3285 18.8516 55.1758 18.9844C54.7266 19.375 54.7266 19.375 54.375 19.375C54.3363 19.4717 54.2977 19.5684 54.2578 19.668C54.0254 20.0631 53.838 20.1122 53.4375 20.3125C53.3305 20.5194 53.2268 20.728 53.125 20.9375C52.8715 21.2047 52.6103 21.4646 52.3438 21.7188C52.2052 21.8573 52.0666 21.9959 51.9238 22.1387C51.6992 22.3633 51.4746 22.5879 51.25 22.8125C50.8398 22.7539 50.8398 22.7539 50.4688 22.6562C50.4132 22.3259 50.4132 22.3259 50.4688 21.875C50.7551 21.5205 51.0303 21.2223 51.3574 20.91C51.4476 20.821 51.5378 20.7319 51.6307 20.6401C51.9187 20.3565 52.2093 20.0757 52.5 19.7949C52.6959 19.6029 52.8916 19.4108 53.0872 19.2184C53.5665 18.7477 54.0482 18.2795 54.5312 17.8125C54.2707 17.0948 53.9689 16.7541 53.3887 16.25C53.2207 16.1002 53.0531 15.95 52.8857 15.7996C52.7979 15.721 52.7101 15.6424 52.6196 15.5614C52.1392 15.128 51.6675 14.6868 51.2012 14.2383C51.1104 14.1547 51.0196 14.0711 50.926 13.985C50.6757 13.7415 50.6757 13.7415 50.3125 13.2812C50.3351 12.8308 50.3351 12.8308 50.4688 12.5C50.8004 12.4441 50.8004 12.4441 51.25 12.5C51.5974 12.7887 51.8882 13.0655 52.193 13.3942C52.2806 13.4847 52.3682 13.5752 52.4584 13.6685C52.7379 13.9576 53.0147 14.2489 53.291 14.541C53.6552 14.9259 54.0219 15.3082 54.3903 15.6891C54.4734 15.7788 54.5566 15.8684 54.6423 15.9608C54.9017 16.2379 54.9017 16.2379 55.3125 16.5625C56.0391 16.4914 56.4232 15.9654 56.8994 15.4626C57.0868 15.2701 57.2741 15.0777 57.4615 14.8853C57.7554 14.5807 58.0486 14.2755 58.341 13.9696C58.6238 13.6746 58.9089 13.382 59.1943 13.0896C59.2814 12.997 59.3685 12.9044 59.4583 12.809C59.7079 12.5546 59.7079 12.5546 60.1562 12.1875Z"
        fill="#F9E6E6" />
    <path
        d="M75.8295 48.2933C77.0785 48.8616 77.9173 49.6 78.5401 50.8208C78.7655 51.451 78.8194 51.9961 78.808 52.6561C78.8098 52.7612 78.8117 52.8664 78.8135 52.9747C78.806 54.2679 78.2572 55.1648 77.3987 56.0796C76.3518 57.0084 75.1781 57.3342 73.7928 57.2716C72.5602 57.0688 71.562 56.525 70.7709 55.5565C70.6122 55.3227 70.4585 55.0853 70.3119 54.8436C70.212 54.6792 70.1121 54.5149 70.0092 54.3456C69.5688 52.7652 69.7632 51.4689 70.5298 50.0359C70.7807 49.6874 70.7807 49.6874 71.2494 49.5311C71.301 49.3764 71.3526 49.2217 71.4057 49.0624C72.7242 48.0101 74.233 47.7737 75.8295 48.2933ZM71.6468 50.3148C71.0057 51.1393 70.6749 51.8757 70.7312 52.9332C70.8893 54.0456 71.3775 54.8542 72.1869 55.6249C73.1061 56.2814 74.0498 56.3664 75.1557 56.2499C76.3516 55.9004 77.0329 55.069 77.6362 54.0233C77.9359 53.024 77.9994 52.0158 77.5678 51.0448C77.1228 50.2762 76.4868 49.7651 75.7319 49.3163C74.2146 48.9634 72.7118 49.1352 71.6468 50.3148Z"
        fill="#DADADA" />
    <path
        d="M38.6035 48.6816C39.8348 49.4611 40.4951 50.3916 40.8887 51.7871C41.0668 53.2474 40.8204 54.5754 39.8926 55.7617C38.9325 56.778 37.7544 57.2032 36.3867 57.2461C35.1821 57.2326 34.3423 56.92 33.4326 56.131C32.54 55.1987 32.0112 54.1003 31.9629 52.8027C32.0387 51.2392 32.6951 50.0793 33.8184 49.0137C35.2672 48.0596 37.0182 47.8706 38.6035 48.6816ZM33.75 50.4687C33.0626 51.4406 33.0163 52.4308 33.125 53.5937C33.3705 54.5977 33.8425 55.1908 34.6979 55.7574C35.5613 56.272 36.3444 56.4137 37.3437 56.25C38.4148 55.8138 39.1083 55.2091 39.6875 54.2187C39.9888 53.3147 39.9214 52.2865 39.7461 51.3574C39.2771 50.4408 38.6494 49.7443 37.6996 49.3213C36.0998 48.8603 34.9269 49.3703 33.75 50.4687Z"
        fill="#DADADA" />
    <path
        d="M79.2188 40.6248C80.1221 40.5925 81.006 40.6447 81.9043 40.742C82.01 40.7516 82.1158 40.7612 82.2247 40.7712C83.1688 40.8825 83.7473 41.272 84.4336 41.9041C84.7931 42.5262 84.8101 43.0476 84.6875 43.7498C84.3338 44.4572 83.9836 44.8092 83.2812 45.156C82.3869 45.3371 81.2492 45.566 80.4187 45.1157C80.1458 44.8326 79.9217 44.5341 79.6875 44.2185C79.4611 44.0083 79.2299 43.8031 78.9941 43.6033C78.888 43.5116 78.7818 43.42 78.6725 43.3256C78.5949 43.2593 78.5174 43.193 78.4375 43.1248C78.5401 42.5338 78.7063 41.9969 78.916 41.4353C78.9726 41.2828 79.0292 41.1304 79.0875 40.9733C79.1525 40.8008 79.1525 40.8008 79.2188 40.6248Z"
        fill="white" />
    <path
        d="M31.5637 40.625C31.7259 40.9198 31.8847 41.2163 32.0422 41.5137C32.131 41.6786 32.2198 41.8436 32.3114 42.0135C32.5216 42.5523 32.5634 42.7506 32.3449 43.2812C32.0098 43.6432 32.0098 43.6432 31.593 43.9941C31.0075 44.4891 31.0075 44.4891 30.476 45.0391C29.9447 45.495 29.4187 45.3871 28.7481 45.3625C27.9162 45.2731 27.4009 45.0728 26.8176 44.4434C26.3543 43.7484 26.2433 43.1707 26.4074 42.3437C26.8115 41.696 27.2375 41.1817 27.9699 40.9375C28.1937 40.9046 28.4182 40.8773 28.6431 40.8539C28.8376 40.8335 28.8376 40.8335 29.0359 40.8127C29.1708 40.7991 29.3056 40.7855 29.4445 40.7715C29.6459 40.7502 29.6459 40.7502 29.8513 40.7285C30.4283 40.6689 30.9823 40.625 31.5637 40.625Z"
        fill="white" />
    <path
        d="M29.2187 21.5625C29.425 21.6141 29.6312 21.6656 29.8437 21.7187C29.8437 22.1828 29.8437 22.6469 29.8437 23.125C30.2047 23.125 30.5656 23.125 30.9375 23.125C30.9891 23.3312 31.0406 23.5375 31.0937 23.75C30.6812 23.8016 30.2687 23.8531 29.8437 23.9062C29.7922 24.3703 29.7406 24.8344 29.6875 25.3125C29.4812 25.3641 29.275 25.4156 29.0625 25.4687C29.0625 24.9016 29.0625 24.3344 29.0625 23.75C28.5984 23.75 28.1344 23.75 27.6562 23.75C27.7078 23.5437 27.7594 23.3375 27.8125 23.125C28.225 23.125 28.6375 23.125 29.0625 23.125C29.0607 23.0253 29.0589 22.9256 29.057 22.8229C29.0556 22.6938 29.0542 22.5647 29.0527 22.4316C29.0509 22.3029 29.0491 22.1742 29.0472 22.0416C29.0625 21.7187 29.0625 21.7187 29.2187 21.5625Z"
        fill="#DADADA" />
    <path
        d="M77.8125 20.625C77.9672 20.625 78.1219 20.625 78.2812 20.625C78.2812 21.0891 78.2812 21.5531 78.2812 22.0312C78.6937 22.0312 79.1062 22.0312 79.5312 22.0312C79.5828 22.2375 79.6344 22.4437 79.6875 22.6562C79.2255 22.8872 78.7903 22.8219 78.2812 22.8125C78.2812 23.3281 78.2812 23.8437 78.2812 24.375C78.075 24.3234 77.8687 24.2719 77.6562 24.2187C77.6562 23.7547 77.6562 23.2906 77.6562 22.8125C77.1922 22.8125 76.7281 22.8125 76.25 22.8125C76.1984 22.6062 76.1469 22.4 76.0938 22.1875C76.6296 21.9196 77.2214 22.0228 77.8125 22.0312C77.8125 21.5672 77.8125 21.1031 77.8125 20.625Z"
        fill="#DADADA" />
    <path
        d="M14.8438 61.0938C14.9984 61.0938 15.1531 61.0938 15.3125 61.0938C15.3125 61.5062 15.3125 61.9187 15.3125 62.3437C15.725 62.3437 16.1375 62.3437 16.5625 62.3437C16.6504 62.6465 16.6504 62.6465 16.7188 62.9687C16.5625 63.125 16.5625 63.125 16.0059 63.1348C15.8286 63.1315 15.6514 63.1283 15.4688 63.125C15.4688 63.4859 15.4688 63.8469 15.4688 64.2187C15.2625 64.2703 15.0562 64.3219 14.8438 64.375C14.8438 63.9625 14.8438 63.55 14.8438 63.125C14.4828 63.125 14.1219 63.125 13.75 63.125C13.6621 62.8223 13.6621 62.8223 13.5938 62.5C13.75 62.3437 13.75 62.3437 14.3066 62.334C14.4839 62.3372 14.6611 62.3404 14.8438 62.3437C14.8438 61.9312 14.8438 61.5187 14.8438 61.0938Z"
        fill="#DADADA" />
    <path
        d="M94.0625 74.0625C94.3243 74.1072 94.585 74.159 94.8438 74.2188C94.8953 74.4766 94.9469 74.7344 95 75C94.7422 75.1031 94.4844 75.2062 94.2188 75.3125C93.9746 75.1172 93.9746 75.1172 93.75 74.8438C93.7893 74.5098 93.8218 74.3032 94.0625 74.0625Z"
        fill="#DADADA" />
    <path
        d="M28.2021 35.918C28.5928 35.9375 28.5928 35.9375 28.749 36.0938C28.7686 36.4844 28.7686 36.4844 28.749 36.875C28.5928 37.0312 28.5928 37.0312 28.2021 37.0508C27.8115 37.0312 27.8115 37.0312 27.6553 36.875C27.6357 36.4844 27.6357 36.4844 27.6553 36.0938C27.8115 35.9375 27.8115 35.9375 28.2021 35.918Z"
        fill="#DADADA" />
    <path
        d="M88.2812 31.875C88.543 31.9197 88.8037 31.9715 89.0625 32.0312C89.1141 32.2891 89.1656 32.5469 89.2188 32.8125C88.7695 32.9102 88.7695 32.9102 88.2812 32.9688C88.1781 32.8656 88.075 32.7625 87.9688 32.6562C88.0525 32.1038 88.0525 32.1038 88.2812 31.875Z"
        fill="#DADADA" />
    <path
        d="M42.8125 76.5625C43.2227 76.6211 43.2227 76.6211 43.5938 76.7188C43.6004 76.9791 43.6001 77.2397 43.5938 77.5C43.4375 77.6562 43.4375 77.6562 43.0371 77.666C42.8486 77.6612 42.8486 77.6612 42.6562 77.6562C42.5586 77.2852 42.5586 77.2852 42.5 76.875C42.6031 76.7719 42.7062 76.6688 42.8125 76.5625Z"
        fill="#DADADA" />
</svg>