<svg width="24" height="25" viewBox="0 0 24 25" fill="none" xmlns="http://www.w3.org/2000/svg">
<path d="M1.98694 14.106C1.88613 14.2067 1.80616 14.3263 1.75159 14.4579C1.69703 14.5895 1.66895 14.7306 1.66895 14.873C1.66895 15.0155 1.69703 15.1566 1.75159 15.2882C1.80616 15.4198 1.88613 15.5394 1.98694 15.64L7.18994 20.844C7.61394 21.267 8.29994 21.267 8.72394 20.844L22.0129 7.55405C22.2162 7.35076 22.3304 7.07504 22.3304 6.78755C22.3304 6.50005 22.2162 6.22434 22.0129 6.02105L19.9529 3.96105C19.7496 3.75776 19.4739 3.64355 19.1864 3.64355C18.8989 3.64355 18.6232 3.75776 18.4199 3.96105L7.95694 14.424L5.57994 12.046C5.37648 11.8427 5.10059 11.7285 4.81294 11.7285C4.52528 11.7285 4.2494 11.8427 4.04594 12.046L1.98694 14.106Z" fill="#78EB7B"/>
<path d="M7.9573 17.5692L20.7603 4.7672L19.9513 3.9582C19.7478 3.75486 19.472 3.64062 19.1843 3.64062C18.8966 3.64063 18.6208 3.75486 18.4173 3.9582L7.9573 14.4242L5.5803 12.0462C5.47963 11.9454 5.36007 11.8654 5.22846 11.8109C5.09685 11.7563 4.95578 11.7282 4.8133 11.7282C4.67083 11.7282 4.52976 11.7563 4.39815 11.8109C4.26654 11.8654 4.14698 11.9454 4.0463 12.0462L3.2373 12.8552L7.9573 17.5692Z" fill="#C9F7CA"/>
<path d="M1.98694 14.106C1.88613 14.2067 1.80616 14.3263 1.75159 14.4579C1.69703 14.5895 1.66895 14.7306 1.66895 14.873C1.66895 15.0155 1.69703 15.1566 1.75159 15.2882C1.80616 15.4198 1.88613 15.5394 1.98694 15.64L7.18994 20.844C7.61394 21.267 8.29994 21.267 8.72394 20.844L22.0129 7.55405C22.2162 7.35076 22.3304 7.07504 22.3304 6.78755C22.3304 6.50005 22.2162 6.22434 22.0129 6.02105L19.9529 3.96105C19.7496 3.75776 19.4739 3.64355 19.1864 3.64355C18.8989 3.64355 18.6232 3.75776 18.4199 3.96105L7.95694 14.424L5.57994 12.046C5.37648 11.8427 5.10059 11.7285 4.81294 11.7285C4.52528 11.7285 4.2494 11.8427 4.04594 12.046L1.98694 14.106Z" stroke="#191919" stroke-linecap="round" stroke-linejoin="round"/>
</svg>
