<svg width="130" height="60" viewBox="0 0 130 60" fill="none" xmlns="http://www.w3.org/2000/svg">
<g clip-path="url(#clip0_6999_16315)">
<path d="M26.914 19.6608C26.7608 19.3034 26.6197 18.9551 26.4454 18.6105C26.3983 18.5027 26.3453 18.4031 26.2886 18.3023C26.2443 18.2069 26.189 18.111 26.1301 18.0282C26.0457 17.8454 25.9302 17.6768 25.8275 17.5084C25.2014 16.4455 24.3833 15.4907 23.5349 14.6914C23.3769 14.5424 23.2216 14.3833 23.0536 14.2511C22.8537 14.0454 22.6218 13.8751 22.3988 13.7093C21.8143 13.275 21.2156 12.9163 20.597 12.5617C19.8957 12.1929 19.1835 11.843 18.4406 11.6159C18.0221 11.4502 17.5809 11.3419 17.1489 11.2419C15.7675 10.919 14.358 10.808 12.9537 10.9115C12.6905 10.9322 12.4298 10.9745 12.1677 11.0078C11.7455 11.0613 11.3233 11.1117 10.9091 11.2288C9.73139 11.468 8.56807 11.919 7.47323 12.4896C6.42986 13.0281 5.44675 13.7235 4.54713 14.5596C4.3556 14.736 4.15387 14.9081 3.97666 15.105C3.74982 15.3505 3.51871 15.5958 3.30656 15.8599C3.23474 15.9417 3.15568 16.0219 3.09506 16.116C2.93571 16.2949 2.79663 16.5009 2.65406 16.6991C1.99604 17.5989 1.44278 18.6033 1.00966 19.6845C0.934215 19.8729 0.835215 20.0886 0.787886 20.289C0.148865 22.0795 -0.148279 24.3396 0.0722654 26.2786C0.165265 27.0961 0.355976 27.9041 0.607402 28.6707C0.748208 29.0999 0.904144 29.5453 1.09301 29.9466C1.45716 30.7873 1.87868 31.6275 2.31847 32.4128C2.42916 32.6105 2.53684 32.8323 2.66311 33.0143C2.86734 33.388 3.07622 33.7848 3.30965 34.1323C3.48359 34.3911 3.67029 34.6391 3.84922 34.893C4.24144 35.4608 4.63839 36.0238 5.03997 36.582L8.18937 41.0605L11.3715 45.5857L12.505 47.2071C12.8923 47.7699 13.2627 48.3333 13.669 48.8787C13.7438 48.9791 13.8329 49.0781 13.9389 49.1253C14.0625 49.1182 14.1669 48.9798 14.2458 48.875C14.4257 48.6361 14.5901 48.3796 14.7686 48.1388C14.7739 48.1357 14.7801 48.1341 14.7848 48.1297C14.9327 47.9918 15.404 47.2278 15.5589 47.002C15.7273 46.756 15.9077 46.5223 16.0796 46.2799L16.8695 45.1496L22.8927 36.5783C23.7542 35.331 24.7198 34.1223 25.5044 32.8065C26.2784 31.5084 26.9822 30.1325 27.4187 28.6126C27.5568 28.1316 27.6847 27.6304 27.7702 27.1319C28.2017 24.6203 27.8309 21.9539 26.914 19.6608ZM13.9748 35.1429C7.92581 35.1429 3.02217 30.2393 3.02217 24.1903C3.02217 18.1414 7.92582 13.2377 13.9748 13.2377C20.0237 13.2377 24.9274 18.1413 24.9274 24.1903C24.9274 30.2393 20.0237 35.1429 13.9748 35.1429Z" fill="#33CC33"/>
<path d="M21.3907 20.5059C21.2825 20.4583 21.1494 20.4322 21.0415 20.4981C20.9328 20.5646 20.8674 20.7012 20.837 20.8396C20.8078 20.9721 20.833 21.2887 20.7525 21.3706C20.6918 21.3517 20.6522 21.292 20.6165 21.2302C19.8874 20.1497 19.0336 18.025 17.8891 17.6059C17.7667 17.5569 17.6346 17.519 17.506 17.5068C17.1882 17.4768 16.8634 17.4937 16.5448 17.4968L15.2681 17.4995L13.7964 17.4999C13.5339 17.4999 13.2666 17.4858 13.005 17.5059C12.8788 17.4946 12.7521 17.502 12.6258 17.5064C12.1546 17.4869 11.6808 17.4984 11.2093 17.4997C10.9148 17.5006 10.6099 17.4749 10.3176 17.5195C10.1709 17.5419 10.0276 17.585 9.89608 17.6684C8.85551 18.2564 8.28525 19.6217 7.63471 20.6971C7.49417 20.9295 7.35721 21.185 7.18727 21.3867C7.17696 21.3833 7.16609 21.3819 7.15636 21.3766C7.06665 21.3277 7.09264 20.8635 7.05759 20.732C7.03169 20.6348 6.98587 20.5494 6.90664 20.5069C6.74445 20.4201 6.50745 20.5125 6.35069 20.586C6.13265 20.663 5.67717 20.9258 5.57056 21.1806C5.54867 21.2328 5.54181 21.29 5.56116 21.3456C5.62129 21.5185 5.89122 21.655 6.03365 21.7063C6.18469 21.7607 6.57728 21.7624 6.66065 21.9222C6.63757 22.1364 6.32689 22.5996 6.23171 22.8571C6.10724 23.185 6.05206 23.5334 6.02221 23.891C5.95884 24.6502 5.99771 25.4277 5.99037 26.1896C5.98567 26.6773 5.90925 29.0319 5.99722 29.3252C5.99943 29.3326 6.00211 29.3398 6.00456 29.3471C6.02058 29.4188 6.03755 29.5209 6.09222 29.5663C6.21569 29.6687 7.90989 29.6265 8.15227 29.602L8.23659 29.4793C8.36497 29.0844 8.28296 28.4717 8.37463 28.0321C8.58927 28.0475 8.80187 28.0868 9.01645 28.104C9.78524 28.1653 10.5594 28.212 11.3293 28.2511C12.794 28.3152 14.2599 28.3294 15.7252 28.2937C16.6855 28.2708 17.639 28.176 18.5979 28.1194C18.9193 28.1004 19.2471 28.0579 19.5684 28.0631C19.5963 28.4392 19.5653 29.2359 19.688 29.5577C19.8428 29.655 21.5195 29.6575 21.7263 29.5888C21.7519 29.5823 21.7764 29.5767 21.7995 29.5608C21.8691 29.5124 21.8918 29.4334 21.9108 29.3441C21.9132 29.336 21.9157 29.3279 21.9178 29.3196C21.9835 29.0724 21.9488 28.5408 21.9476 28.2625C21.946 27.5868 21.9392 26.9112 21.9272 26.2357C21.9199 25.542 21.9332 24.8444 21.908 24.1516C21.8985 23.8911 21.8887 23.607 21.8405 23.3534C21.7372 22.809 21.4579 22.3881 21.2562 21.9005C21.4082 21.8228 21.5648 21.8006 21.7245 21.759C21.8064 21.7469 21.8945 21.709 21.9733 21.6783C22.1878 21.5947 22.2988 21.4648 22.3997 21.2289C22.1511 20.8437 21.7686 20.6494 21.3907 20.506V20.5059ZM7.12057 26.5112C6.76089 26.5112 6.46932 26.2196 6.46932 25.86C6.46932 25.5003 6.76089 25.2087 7.12057 25.2087C7.48025 25.2087 7.77182 25.5003 7.77182 25.86C7.77182 26.2196 7.48025 26.5112 7.12057 26.5112ZM8.72553 24.0722C8.34257 24.0742 7.95799 24.0979 7.57536 24.0717C7.27954 24.0514 6.91346 23.9631 6.71078 23.6773C6.58016 23.4932 6.51817 23.231 6.53635 22.9897C6.54885 22.8237 6.61391 22.6886 6.72263 22.5875C6.77192 22.5475 6.81501 22.523 6.84054 22.5097C7.73025 22.0458 9.41893 23.6214 9.77961 23.9579C9.85764 24.0307 9.91862 24.0904 9.94988 24.1212C9.52181 24.088 9.15588 24.0699 8.72555 24.0721L8.72553 24.0722ZM18.0903 18.9658C17.8149 18.629 17.4401 18.4903 17.0552 18.488C16.7162 18.4859 16.321 18.6292 16.0762 18.9235C15.9391 19.0884 15.8299 19.3161 15.8331 19.5557C15.8376 19.907 16.0887 20.103 16.2761 20.3258C16.1484 20.5165 15.9399 20.6781 15.7943 20.8766C15.6841 21.027 15.4592 21.5043 15.3542 21.5746C15.3033 21.6088 15.2155 21.6218 15.161 21.5936C15.1224 21.5736 15.1186 21.5544 15.1069 21.5107C15.1577 21.1995 15.7404 20.5504 15.9274 20.2925C15.8509 20.2053 15.7641 20.1398 15.6935 20.0436C15.5465 19.843 15.432 19.5574 15.5405 19.2959C15.5967 19.1605 15.6687 19.0637 15.6755 18.9056C15.6504 18.8535 15.6377 18.8353 15.5864 18.8186C15.3528 18.7424 15.0415 18.7985 14.8345 18.9429C14.7988 18.9638 14.5812 19.0963 14.5252 19.3696C14.4575 19.6998 14.6864 19.9389 14.7053 19.9579C14.7241 19.982 14.7383 20.0052 14.7538 20.0323C14.742 20.1687 14.5783 20.273 14.5051 20.3795C14.3134 20.6583 14.1809 20.9628 14.0639 21.2947C14.0428 21.3543 14.0183 21.4563 13.9788 21.499C13.9604 21.5189 13.962 21.5105 13.934 21.5046C13.8617 21.4158 13.8105 21.1257 13.7573 20.9933C13.7168 20.8925 13.6728 20.7906 13.6224 20.6965C13.5539 20.5685 13.4366 20.4308 13.3964 20.2882C13.3837 20.2432 13.3866 20.2245 13.4043 20.1836C13.534 20.1146 13.7131 20.3369 13.8455 20.3126L13.8535 20.2834C13.8116 20.0913 13.6523 19.9764 13.5998 19.7936C13.5064 19.4683 13.6432 19.1397 13.4506 18.828C13.3196 18.6159 13.0806 18.5393 12.873 18.5072C12.6804 18.4773 12.3051 18.561 12.1552 18.7152C12.1418 18.729 12.1242 18.7526 12.1258 18.7771C12.1365 18.9339 12.4438 19.1891 12.4171 19.6011C12.3969 19.9136 12.181 20.1221 11.9954 20.3043C12.0824 20.4214 12.189 20.5214 12.2838 20.6297C12.4521 20.8218 12.6988 21.1639 12.8002 21.412C12.823 21.4677 12.8246 21.5015 12.8074 21.559C12.7797 21.5855 12.7589 21.5979 12.7243 21.6046C12.6648 21.616 12.5907 21.6136 12.5394 21.5704C12.4328 21.4808 12.2814 21.1051 12.1826 20.9592C12.018 20.7158 11.8314 20.5242 11.6246 20.3367C11.7488 20.1743 11.9076 20.0695 11.995 19.8654C12.0712 19.6874 12.1059 19.4697 12.0482 19.277C11.961 18.9855 11.6977 18.7665 11.4726 18.6454C11.1276 18.4598 10.6446 18.446 10.2933 18.6125C10.176 18.6937 10.0587 18.775 9.94134 18.8562C9.85355 18.9905 9.76576 19.1248 9.67797 19.2591C9.61991 19.4279 9.61354 19.6009 9.67067 19.7721C9.74485 19.9946 9.90228 20.1576 10.0617 20.29C9.90573 20.4798 9.72762 20.6605 9.586 20.8651C9.47791 21.0213 9.39662 21.2258 9.27712 21.3661C9.23615 21.4143 9.19794 21.4188 9.1428 21.4196C8.9395 21.4227 8.22898 21.3603 8.07298 21.2186C8.04122 21.1059 8.06509 21.0122 8.10688 20.9069C8.15785 20.7786 8.23442 20.6642 8.30201 20.5481C8.46847 20.1692 8.71311 19.6694 9.04018 19.165C9.22185 18.8849 9.40178 18.6452 9.44986 18.5816C9.60732 18.3732 9.75594 18.1932 9.88669 18.0427C9.95618 18.0028 10.0257 17.963 10.0951 17.9232C10.299 17.7221 11.6433 17.7856 11.9294 17.7866C12.0606 17.7871 12.2185 17.7555 12.3458 17.7746C12.5973 17.8124 12.8693 17.7302 13.1147 17.7925C13.1358 17.7979 13.1625 17.7904 13.1836 17.7871C13.5093 17.7356 14.1048 17.7848 14.4561 17.7897C14.907 17.7959 15.0743 17.7825 15.3975 17.7794C15.4773 17.7786 15.5439 17.7784 15.608 17.7788C15.7893 17.7799 15.9451 17.783 16.0647 17.7861C16.1732 17.7888 16.2509 17.7916 16.2737 17.7923C16.9677 17.8153 17.1816 17.6982 17.5004 17.8329C17.6983 17.9165 17.8344 18.054 18.0652 18.287C18.151 18.3737 18.2275 18.4618 18.3787 18.6397C18.6372 18.944 18.8206 19.1771 19.0454 19.4868C19.1196 19.589 19.2162 19.7283 19.3286 19.9123C19.4347 20.0862 19.5126 20.245 19.6682 20.5627C19.7956 20.8225 19.8492 20.9475 19.8047 21.0872C19.7778 21.1714 19.7308 21.2286 19.7025 21.2496C19.5193 21.3855 18.9174 21.4096 18.6897 21.4157C18.6038 21.2656 18.5032 21.106 18.3855 20.9413C18.2122 20.6991 18.0359 20.4937 17.8712 20.3222C17.9089 20.2777 17.9562 20.2097 18.0222 20.1359C18.1747 19.9652 18.2863 19.8063 18.291 19.5408C18.2951 19.3144 18.2203 19.1248 18.0903 18.9657L18.0903 18.9658ZM20.771 26.5112C20.4113 26.5112 20.1197 26.2196 20.1197 25.86C20.1197 25.5003 20.4113 25.2087 20.771 25.2087C21.1307 25.2087 21.4222 25.5003 21.4222 25.86C21.4222 26.2196 21.1307 26.5112 20.771 26.5112ZM21.3925 22.9897C21.4107 23.231 21.3487 23.4932 21.2181 23.6773C21.0154 23.9631 20.6493 24.0515 20.3535 24.0717C19.9708 24.0979 19.5863 24.0742 19.2033 24.0722C18.773 24.0699 18.407 24.088 17.979 24.1212C18.0102 24.0904 18.0712 24.0308 18.1492 23.9579C18.5099 23.6214 20.1986 22.0458 21.0883 22.5098C21.1138 22.5231 21.1569 22.5476 21.2062 22.5875C21.3149 22.6886 21.38 22.8237 21.3925 22.9897L21.3925 22.9897Z" fill="#33CC33"/>
</g>
<path d="M40.7307 21.5032C40.6626 20.9274 40.386 20.4805 39.9012 20.1623C39.4163 19.8441 38.8216 19.685 38.1171 19.685C37.6019 19.685 37.1512 19.7683 36.7648 19.935C36.3823 20.1017 36.083 20.3308 35.8671 20.6225C35.655 20.9142 35.5489 21.2456 35.5489 21.6168C35.5489 21.9274 35.6228 22.1945 35.7705 22.418C35.922 22.6377 36.1152 22.8214 36.3501 22.9691C36.5849 23.113 36.8311 23.2324 37.0887 23.3271C37.3463 23.418 37.583 23.4918 37.7989 23.5487L38.9807 23.8668C39.2838 23.9464 39.6209 24.0562 39.9921 24.1964C40.3671 24.3365 40.7251 24.5278 41.066 24.7702C41.4107 25.0089 41.6948 25.3157 41.9182 25.6907C42.1417 26.0657 42.2535 26.5259 42.2535 27.0714C42.2535 27.7002 42.0887 28.2683 41.7591 28.7759C41.4334 29.2835 40.9561 29.6869 40.3273 29.9862C39.7023 30.2854 38.9429 30.435 38.0489 30.435C37.2156 30.435 36.494 30.3005 35.8841 30.0316C35.2781 29.7627 34.8008 29.3877 34.4523 28.9066C34.1076 28.4255 33.9126 27.8668 33.8671 27.2305H35.3216C35.3595 27.6699 35.5073 28.0335 35.7648 28.3214C36.0262 28.6055 36.3557 28.8176 36.7535 28.9577C37.155 29.0941 37.5868 29.1623 38.0489 29.1623C38.5868 29.1623 39.0698 29.0752 39.4978 28.9009C39.9258 28.7229 40.2648 28.4767 40.5148 28.1623C40.7648 27.8441 40.8898 27.4729 40.8898 27.0487C40.8898 26.6623 40.7819 26.3479 40.566 26.1055C40.3501 25.863 40.066 25.6661 39.7137 25.5146C39.3614 25.363 38.9807 25.2305 38.5716 25.1168L37.1398 24.7077C36.2307 24.4464 35.511 24.0733 34.9807 23.5884C34.4504 23.1036 34.1853 22.4691 34.1853 21.685C34.1853 21.0335 34.3614 20.4653 34.7137 19.9805C35.0698 19.4918 35.547 19.113 36.1455 18.8441C36.7478 18.5714 37.4201 18.435 38.1626 18.435C38.9126 18.435 39.5792 18.5695 40.1626 18.8384C40.7459 19.1036 41.208 19.4672 41.5489 19.9293C41.8936 20.3915 42.0754 20.9161 42.0944 21.5032H40.7307ZM45.9793 18.5941V30.2305H44.5702V18.5941H45.9793ZM48.8046 18.5941H50.4864L54.441 28.2532H54.5773L58.5319 18.5941H60.2137V30.2305H58.8955V21.3896H58.7819L55.1455 30.2305H53.8728L50.2364 21.3896H50.1228V30.2305H48.8046V18.5941ZM63.039 30.2305V18.5941H66.9708C67.8837 18.5941 68.6299 18.7589 69.2094 19.0884C69.7928 19.4142 70.2246 19.8555 70.5049 20.4123C70.7852 20.9691 70.9253 21.5903 70.9253 22.2759C70.9253 22.9615 70.7852 23.5846 70.5049 24.1452C70.2284 24.7058 69.8003 25.1528 69.2208 25.4862C68.6412 25.8157 67.8988 25.9805 66.9935 25.9805H64.1753V24.7305H66.9481C67.5731 24.7305 68.075 24.6225 68.4537 24.4066C68.8325 24.1907 69.1072 23.899 69.2776 23.5316C69.4519 23.1604 69.539 22.7418 69.539 22.2759C69.539 21.81 69.4519 21.3933 69.2776 21.0259C69.1072 20.6585 68.8306 20.3706 68.4481 20.1623C68.0655 19.9502 67.5579 19.8441 66.9253 19.8441H64.4481V30.2305H63.039ZM73.1952 30.2305V18.5941H74.6043V28.9805H80.0134V30.2305H73.1952ZM80.6483 18.5941H82.262L85.4893 24.0259H85.6256L88.8529 18.5941H90.4665L86.262 25.435V30.2305H84.8529V25.435L80.6483 18.5941Z" fill="#333FFF"/>
<path d="M96.789 30.2305V18.5941H98.1981V23.7759H104.403V18.5941H105.812V30.2305H104.403V25.0259H98.1981V30.2305H96.789ZM118.451 24.4123C118.451 25.6396 118.229 26.7002 117.786 27.5941C117.343 28.488 116.735 29.1774 115.962 29.6623C115.19 30.1471 114.307 30.3896 113.315 30.3896C112.322 30.3896 111.44 30.1471 110.667 29.6623C109.894 29.1774 109.286 28.488 108.843 27.5941C108.4 26.7002 108.178 25.6396 108.178 24.4123C108.178 23.185 108.4 22.1244 108.843 21.2305C109.286 20.3365 109.894 19.6471 110.667 19.1623C111.44 18.6774 112.322 18.435 113.315 18.435C114.307 18.435 115.19 18.6774 115.962 19.1623C116.735 19.6471 117.343 20.3365 117.786 21.2305C118.229 22.1244 118.451 23.185 118.451 24.4123ZM117.087 24.4123C117.087 23.4047 116.919 22.5543 116.582 21.8612C116.248 21.168 115.796 20.6433 115.224 20.2873C114.655 19.9312 114.019 19.7532 113.315 19.7532C112.61 19.7532 111.972 19.9312 111.4 20.2873C110.832 20.6433 110.379 21.168 110.042 21.8612C109.708 22.5543 109.542 23.4047 109.542 24.4123C109.542 25.4199 109.708 26.2702 110.042 26.9634C110.379 27.6566 110.832 28.1812 111.4 28.5373C111.972 28.8933 112.61 29.0714 113.315 29.0714C114.019 29.0714 114.655 28.8933 115.224 28.5373C115.796 28.1812 116.248 27.6566 116.582 26.9634C116.919 26.2702 117.087 25.4199 117.087 24.4123ZM120.82 30.2305V18.5941H124.752C125.665 18.5941 126.411 18.7589 126.991 19.0884C127.574 19.4142 128.006 19.8555 128.286 20.4123C128.566 20.9691 128.707 21.5903 128.707 22.2759C128.707 22.9615 128.566 23.5846 128.286 24.1452C128.01 24.7058 127.582 25.1528 127.002 25.4862C126.422 25.8157 125.68 25.9805 124.775 25.9805H121.957V24.7305H124.729C125.354 24.7305 125.856 24.6225 126.235 24.4066C126.614 24.1907 126.888 23.899 127.059 23.5316C127.233 23.1604 127.32 22.7418 127.32 22.2759C127.32 21.81 127.233 21.3933 127.059 21.0259C126.888 20.6585 126.612 20.3706 126.229 20.1623C125.847 19.9502 125.339 19.8441 124.707 19.8441H122.229V30.2305H120.82Z" fill="#33CC33"/>
<path d="M35.5 42.769H33.7045V36.9509H35.5795C36.1439 36.9509 36.6269 37.0673 37.0284 37.3003C37.4299 37.5314 37.7377 37.8637 37.9517 38.2975C38.1657 38.7293 38.2727 39.2463 38.2727 39.8486C38.2727 40.4546 38.1648 40.9764 37.9489 41.4139C37.733 41.8495 37.4186 42.1848 37.0057 42.4196C36.5928 42.6526 36.0909 42.769 35.5 42.769ZM34.4091 42.144H35.4545C35.9356 42.144 36.3343 42.0512 36.6506 41.8656C36.9669 41.68 37.2027 41.4158 37.358 41.073C37.5133 40.7302 37.5909 40.3221 37.5909 39.8486C37.5909 39.3789 37.5142 38.9745 37.3608 38.6355C37.2074 38.2946 36.9782 38.0332 36.6733 37.8514C36.3684 37.6677 35.9886 37.5759 35.5341 37.5759H34.4091V42.144ZM39.3636 42.769V38.4054H40.0114V39.0645H40.0568C40.1364 38.8486 40.2803 38.6734 40.4886 38.5389C40.697 38.4045 40.9318 38.3372 41.1932 38.3372C41.2424 38.3372 41.304 38.3382 41.3778 38.3401C41.4517 38.342 41.5076 38.3448 41.5455 38.3486V39.0304C41.5227 39.0247 41.4706 39.0162 41.3892 39.0048C41.3097 38.9916 41.2254 38.985 41.1364 38.985C40.9242 38.985 40.7348 39.0295 40.5682 39.1185C40.4034 39.2056 40.2727 39.3268 40.1761 39.4821C40.0814 39.6355 40.0341 39.8107 40.0341 40.0077V42.769H39.3636ZM42.3402 42.769V38.4054H43.0107V42.769H42.3402ZM42.6811 37.6781C42.5504 37.6781 42.4377 37.6336 42.343 37.5446C42.2502 37.4556 42.2038 37.3486 42.2038 37.2236C42.2038 37.0986 42.2502 36.9916 42.343 36.9026C42.4377 36.8136 42.5504 36.769 42.6811 36.769C42.8118 36.769 42.9235 36.8136 43.0163 36.9026C43.111 36.9916 43.1584 37.0986 43.1584 37.2236C43.1584 37.3486 43.111 37.4556 43.0163 37.5446C42.9235 37.6336 42.8118 37.6781 42.6811 37.6781ZM47.8068 38.4054L46.1932 42.769H45.5114L43.8977 38.4054H44.625L45.8295 41.8827H45.875L47.0795 38.4054H47.8068ZM50.3651 42.86C49.9446 42.86 49.5819 42.7671 49.277 42.5815C48.974 42.394 48.7401 42.1327 48.5753 41.7975C48.4124 41.4603 48.331 41.0683 48.331 40.6213C48.331 40.1743 48.4124 39.7804 48.5753 39.4395C48.7401 39.0967 48.9692 38.8296 49.2628 38.6384C49.5582 38.4452 49.9029 38.3486 50.2969 38.3486C50.5241 38.3486 50.7486 38.3865 50.9702 38.4622C51.1918 38.538 51.3935 38.6611 51.5753 38.8315C51.7571 39.0001 51.902 39.2236 52.0099 39.502C52.1179 39.7804 52.1719 40.1232 52.1719 40.5304V40.8145H48.8082V40.235H51.4901C51.4901 39.9887 51.4408 39.769 51.3423 39.5759C51.2457 39.3827 51.1075 39.2302 50.9276 39.1185C50.7495 39.0067 50.5393 38.9509 50.2969 38.9509C50.0298 38.9509 49.7988 39.0171 49.6037 39.1497C49.4105 39.2804 49.2618 39.4509 49.1577 39.6611C49.0535 39.8713 49.0014 40.0967 49.0014 40.3372V40.7236C49.0014 41.0531 49.0582 41.3325 49.1719 41.5617C49.2874 41.7889 49.4474 41.9622 49.652 42.0815C49.8565 42.199 50.0942 42.2577 50.3651 42.2577C50.5412 42.2577 50.7003 42.2331 50.8423 42.1838C50.9863 42.1327 51.1103 42.0569 51.2145 41.9565C51.3187 41.8543 51.3991 41.7274 51.456 41.5759L52.1037 41.7577C52.0355 41.9774 51.9209 42.1706 51.7599 42.3372C51.599 42.502 51.4001 42.6308 51.1634 42.7236C50.9266 42.8145 50.6605 42.86 50.3651 42.86ZM55.2145 37.5759V36.9509H59.5781V37.5759H57.7486V42.769H57.044V37.5759H55.2145ZM61.7145 42.86C61.3205 42.86 60.9749 42.7662 60.6776 42.5787C60.3821 42.3912 60.151 42.1289 59.9844 41.7918C59.8196 41.4546 59.7372 41.0607 59.7372 40.61C59.7372 40.1554 59.8196 39.7586 59.9844 39.4196C60.151 39.0806 60.3821 38.8173 60.6776 38.6298C60.9749 38.4423 61.3205 38.3486 61.7145 38.3486C62.1084 38.3486 62.4531 38.4423 62.7486 38.6298C63.0459 38.8173 63.277 39.0806 63.4418 39.4196C63.6084 39.7586 63.6918 40.1554 63.6918 40.61C63.6918 41.0607 63.6084 41.4546 63.4418 41.7918C63.277 42.1289 63.0459 42.3912 62.7486 42.5787C62.4531 42.7662 62.1084 42.86 61.7145 42.86ZM61.7145 42.2577C62.0137 42.2577 62.2599 42.181 62.4531 42.0276C62.6463 41.8742 62.7893 41.6725 62.8821 41.4225C62.9749 41.1725 63.0213 40.9016 63.0213 40.61C63.0213 40.3183 62.9749 40.0465 62.8821 39.7946C62.7893 39.5427 62.6463 39.3391 62.4531 39.1838C62.2599 39.0285 62.0137 38.9509 61.7145 38.9509C61.4152 38.9509 61.169 39.0285 60.9759 39.1838C60.7827 39.3391 60.6397 39.5427 60.5469 39.7946C60.4541 40.0465 60.4077 40.3183 60.4077 40.61C60.4077 40.9016 60.4541 41.1725 60.5469 41.4225C60.6397 41.6725 60.7827 41.8742 60.9759 42.0276C61.169 42.181 61.4152 42.2577 61.7145 42.2577ZM66.4766 44.4963C66.1527 44.4963 65.8743 44.4546 65.6413 44.3713C65.4084 44.2899 65.2143 44.1819 65.0589 44.0475C64.9055 43.9149 64.7834 43.7728 64.6925 43.6213L65.2266 43.2463C65.2872 43.3259 65.3639 43.4168 65.4567 43.519C65.5495 43.6232 65.6764 43.7132 65.8374 43.7889C66.0002 43.8666 66.2133 43.9054 66.4766 43.9054C66.8288 43.9054 67.1196 43.8202 67.3487 43.6497C67.5779 43.4793 67.6925 43.2122 67.6925 42.8486V41.9622H67.6357C67.5864 42.0418 67.5163 42.1403 67.4254 42.2577C67.3364 42.3732 67.2076 42.4764 67.0391 42.5673C66.8724 42.6564 66.647 42.7009 66.3629 42.7009C66.0107 42.7009 65.6944 42.6175 65.4141 42.4509C65.1357 42.2842 64.915 42.0418 64.7521 41.7236C64.5911 41.4054 64.5107 41.019 64.5107 40.5645C64.5107 40.1175 64.5893 39.7283 64.7464 39.3969C64.9036 39.0636 65.1224 38.806 65.4027 38.6242C65.683 38.4404 66.0069 38.3486 66.3743 38.3486C66.6584 38.3486 66.8838 38.3959 67.0504 38.4906C67.219 38.5834 67.3478 38.6895 67.4368 38.8088C67.5277 38.9262 67.5978 39.0228 67.647 39.0986H67.7152V38.4054H68.3629V42.894C68.3629 43.269 68.2777 43.574 68.1072 43.8088C67.9387 44.0456 67.7114 44.2189 67.4254 44.3287C67.1413 44.4404 66.825 44.4963 66.4766 44.4963ZM66.4538 42.0986C66.7228 42.0986 66.95 42.037 67.1357 41.9139C67.3213 41.7908 67.4624 41.6137 67.5589 41.3827C67.6555 41.1516 67.7038 40.8751 67.7038 40.5531C67.7038 40.2387 67.6565 39.9613 67.5618 39.7207C67.4671 39.4802 67.3269 39.2918 67.1413 39.1554C66.9557 39.019 66.7266 38.9509 66.4538 38.9509C66.1697 38.9509 65.933 39.0228 65.7436 39.1668C65.5561 39.3107 65.415 39.5039 65.3203 39.7463C65.2275 39.9887 65.1811 40.2577 65.1811 40.5531C65.1811 40.8562 65.2285 41.1242 65.3232 41.3571C65.4197 41.5882 65.5618 41.77 65.7493 41.9026C65.9387 42.0332 66.1735 42.0986 66.4538 42.0986ZM71.4197 42.86C70.9993 42.86 70.6366 42.7671 70.3317 42.5815C70.0286 42.394 69.7947 42.1327 69.63 41.7975C69.4671 41.4603 69.3857 41.0683 69.3857 40.6213C69.3857 40.1743 69.4671 39.7804 69.63 39.4395C69.7947 39.0967 70.0239 38.8296 70.3175 38.6384C70.6129 38.4452 70.9576 38.3486 71.3516 38.3486C71.5788 38.3486 71.8033 38.3865 72.0249 38.4622C72.2464 38.538 72.4482 38.6611 72.63 38.8315C72.8118 39.0001 72.9567 39.2236 73.0646 39.502C73.1726 39.7804 73.2266 40.1232 73.2266 40.5304V40.8145H69.8629V40.235H72.5447C72.5447 39.9887 72.4955 39.769 72.397 39.5759C72.3004 39.3827 72.1622 39.2302 71.9822 39.1185C71.8042 39.0067 71.594 38.9509 71.3516 38.9509C71.0845 38.9509 70.8535 39.0171 70.6584 39.1497C70.4652 39.2804 70.3165 39.4509 70.2124 39.6611C70.1082 39.8713 70.0561 40.0967 70.0561 40.3372V40.7236C70.0561 41.0531 70.1129 41.3325 70.2266 41.5617C70.3421 41.7889 70.5021 41.9622 70.7067 42.0815C70.9112 42.199 71.1489 42.2577 71.4197 42.2577C71.5959 42.2577 71.755 42.2331 71.897 42.1838C72.041 42.1327 72.165 42.0569 72.2692 41.9565C72.3733 41.8543 72.4538 41.7274 72.5107 41.5759L73.1584 41.7577C73.0902 41.9774 72.9756 42.1706 72.8146 42.3372C72.6536 42.502 72.4548 42.6308 72.218 42.7236C71.9813 42.8145 71.7152 42.86 71.4197 42.86ZM76.1442 38.4054V38.9736H73.8828V38.4054H76.1442ZM74.5419 37.36H75.2124V41.519C75.2124 41.7084 75.2398 41.8505 75.2947 41.9452C75.3516 42.038 75.4235 42.1005 75.5107 42.1327C75.5997 42.163 75.6934 42.1781 75.7919 42.1781C75.8658 42.1781 75.9264 42.1743 75.9737 42.1668C76.0211 42.1573 76.0589 42.1497 76.0874 42.144L76.2237 42.7463C76.1783 42.7634 76.1148 42.7804 76.0334 42.7975C75.9519 42.8164 75.8487 42.8259 75.7237 42.8259C75.5343 42.8259 75.3487 42.7851 75.1669 42.7037C74.987 42.6223 74.8374 42.4982 74.718 42.3315C74.6006 42.1649 74.5419 41.9546 74.5419 41.7009V37.36ZM77.9169 40.144V42.769H77.2464V36.9509H77.9169V39.0872H77.9737C78.076 38.8618 78.2294 38.6829 78.4339 38.5503C78.6404 38.4158 78.915 38.3486 79.2578 38.3486C79.5552 38.3486 79.8156 38.4082 80.0391 38.5276C80.2625 38.645 80.4358 38.8259 80.5589 39.0702C80.6839 39.3126 80.7464 39.6213 80.7464 39.9963V42.769H80.076V40.0418C80.076 39.6952 79.986 39.4272 79.8061 39.2378C79.6281 39.0465 79.3809 38.9509 79.0646 38.9509C78.8449 38.9509 78.648 38.9973 78.4737 39.0901C78.3014 39.1829 78.165 39.3183 78.0646 39.4963C77.9661 39.6743 77.9169 39.8903 77.9169 40.144ZM83.8026 42.86C83.3821 42.86 83.0194 42.7671 82.7145 42.5815C82.4115 42.394 82.1776 42.1327 82.0128 41.7975C81.8499 41.4603 81.7685 41.0683 81.7685 40.6213C81.7685 40.1743 81.8499 39.7804 82.0128 39.4395C82.1776 39.0967 82.4067 38.8296 82.7003 38.6384C82.9957 38.4452 83.3404 38.3486 83.7344 38.3486C83.9616 38.3486 84.1861 38.3865 84.4077 38.4622C84.6293 38.538 84.831 38.6611 85.0128 38.8315C85.1946 39.0001 85.3395 39.2236 85.4474 39.502C85.5554 39.7804 85.6094 40.1232 85.6094 40.5304V40.8145H82.2457V40.235H84.9276C84.9276 39.9887 84.8783 39.769 84.7798 39.5759C84.6832 39.3827 84.545 39.2302 84.3651 39.1185C84.187 39.0067 83.9768 38.9509 83.7344 38.9509C83.4673 38.9509 83.2363 39.0171 83.0412 39.1497C82.848 39.2804 82.6993 39.4509 82.5952 39.6611C82.491 39.8713 82.4389 40.0967 82.4389 40.3372V40.7236C82.4389 41.0531 82.4957 41.3325 82.6094 41.5617C82.7249 41.7889 82.8849 41.9622 83.0895 42.0815C83.294 42.199 83.5317 42.2577 83.8026 42.2577C83.9787 42.2577 84.1378 42.2331 84.2798 42.1838C84.4238 42.1327 84.5478 42.0569 84.652 41.9565C84.7562 41.8543 84.8366 41.7274 84.8935 41.5759L85.5412 41.7577C85.473 41.9774 85.3584 42.1706 85.1974 42.3372C85.0365 42.502 84.8376 42.6308 84.6009 42.7236C84.3641 42.8145 84.098 42.86 83.8026 42.86ZM86.6293 42.769V38.4054H87.277V39.0645H87.3224C87.402 38.8486 87.5459 38.6734 87.7543 38.5389C87.9626 38.4045 88.1974 38.3372 88.4588 38.3372C88.508 38.3372 88.5696 38.3382 88.6435 38.3401C88.7173 38.342 88.7732 38.3448 88.8111 38.3486V39.0304C88.7884 39.0247 88.7363 39.0162 88.6548 39.0048C88.5753 38.9916 88.491 38.985 88.402 38.985C88.1899 38.985 88.0005 39.0295 87.8338 39.1185C87.669 39.2056 87.5384 39.3268 87.4418 39.4821C87.3471 39.6355 87.2997 39.8107 87.2997 40.0077V42.769H86.6293Z" fill="#333FFF"/>
<defs>
<clipPath id="clip0_6999_16315">
<rect width="27.9496" height="38.2515" fill="white" transform="translate(0 10.874)"/>
</clipPath>
</defs>
</svg>
